<svg id="svg" version="1.1" xmlns="http://www.w3.org/2000/svg" xmlns:xlink="http://www.w3.org/1999/xlink" width="400" height="160.05416384563304" viewBox="0, 0, 400,160.05416384563304"><g id="svgg"><path id="path0" d="M234.000 15.729 C 230.715 16.624,230.843 16.523,222.635 24.713 C 217.659 29.679,216.687 30.724,216.821 30.963 C 216.910 31.121,217.478 31.732,218.084 32.321 L 219.186 33.392 225.468 27.150 C 232.417 20.246,232.247 20.402,233.417 19.875 C 236.119 18.660,238.829 18.806,241.164 20.291 C 242.202 20.952,267.854 46.436,268.719 47.667 C 270.747 50.552,270.765 54.265,268.763 57.067 C 268.206 57.847,241.871 84.127,241.371 84.402 C 236.046 87.332,234.462 86.658,225.453 77.633 L 219.295 71.464 218.064 72.686 C 217.387 73.358,216.833 73.963,216.833 74.029 C 216.833 74.156,227.995 85.340,229.113 86.333 C 232.622 89.449,237.660 90.137,242.173 88.115 C 242.681 87.888,243.197 87.581,243.319 87.434 C 243.441 87.287,243.660 87.167,243.805 87.167 C 244.270 87.167,272.167 59.079,272.167 58.611 C 272.167 58.458,272.230 58.333,272.309 58.333 C 272.644 58.333,273.529 55.852,273.786 54.188 C 274.252 51.183,273.650 48.275,272.058 45.833 C 271.209 44.532,244.067 17.333,243.617 17.333 C 243.461 17.333,243.333 17.271,243.333 17.194 C 243.333 17.010,241.176 16.032,240.097 15.727 C 238.539 15.285,235.624 15.287,234.000 15.729 M208.548 38.765 C 203.437 43.888,201.500 46.011,201.500 46.490 C 201.500 46.594,201.388 46.850,201.250 47.060 C 199.278 50.069,199.622 54.965,202.101 59.195 C 202.435 59.765,213.935 71.333,214.168 71.333 C 214.340 71.333,216.667 69.116,216.667 68.952 C 216.667 68.896,214.133 66.316,211.036 63.217 C 206.078 58.257,204.333 56.337,204.333 55.843 C 204.333 55.766,204.185 55.376,204.004 54.977 C 203.329 53.489,203.599 50.157,204.515 48.667 C 204.600 48.529,204.759 48.229,204.868 48.000 C 204.978 47.771,207.659 44.974,210.825 41.786 C 213.992 38.597,216.611 35.908,216.645 35.810 C 216.707 35.629,214.789 33.583,214.333 33.346 C 214.148 33.249,212.661 34.641,208.548 38.765 M60.665 109.509 C 55.045 110.338,53.658 117.586,58.667 119.954 C 59.079 120.149,59.979 120.470,60.667 120.668 C 65.610 122.089,66.440 122.736,65.174 124.186 L 64.681 124.750 62.882 124.740 C 60.882 124.730,60.326 124.548,58.451 123.291 C 57.279 122.506,57.467 122.433,56.001 124.233 L 54.792 125.716 55.438 126.266 C 56.143 126.868,58.928 128.333,59.366 128.333 C 59.517 128.333,60.114 128.455,60.694 128.603 C 62.588 129.089,65.141 128.821,67.000 127.941 C 67.790 127.568,69.333 126.128,69.333 125.764 C 69.333 125.647,69.458 125.301,69.610 124.996 C 70.912 122.387,69.371 119.004,66.371 117.885 C 64.860 117.321,63.255 116.833,62.905 116.832 C 62.460 116.829,60.830 116.053,60.375 115.627 C 59.573 114.875,60.142 113.721,61.518 113.308 C 62.176 113.111,64.069 113.375,64.265 113.690 C 64.313 113.769,64.480 113.834,64.635 113.834 C 64.790 113.834,65.404 114.129,66.000 114.488 L 67.083 115.142 67.458 114.792 C 67.665 114.599,67.833 114.372,67.833 114.287 C 67.833 114.201,68.002 113.916,68.208 113.652 C 69.622 111.844,69.621 111.847,68.444 111.094 C 66.195 109.655,63.459 109.098,60.665 109.509 M104.833 109.485 C 96.812 110.628,94.095 121.648,100.575 126.759 C 105.116 130.341,112.995 129.098,115.556 124.395 C 117.207 121.364,117.507 118.164,116.390 115.500 C 115.905 114.341,115.445 113.490,115.101 113.108 C 113.432 111.261,113.281 111.141,111.602 110.337 C 109.666 109.411,107.375 109.123,104.833 109.485 M154.077 109.487 C 148.654 110.148,147.056 117.638,151.864 119.860 C 152.987 120.378,154.392 120.854,155.250 121.006 C 158.286 121.544,159.714 123.029,158.429 124.313 C 157.538 125.204,153.690 124.787,152.259 123.645 C 152.162 123.568,151.848 123.316,151.559 123.086 C 150.844 122.513,150.796 122.530,149.903 123.667 C 149.471 124.217,149.054 124.667,148.975 124.667 C 148.897 124.667,148.833 124.770,148.833 124.896 C 148.833 125.023,148.721 125.219,148.583 125.333 C 148.161 125.684,148.296 125.928,149.292 126.611 C 153.373 129.412,158.863 129.601,161.679 127.039 C 163.921 124.998,163.889 120.808,161.617 118.956 C 160.640 118.159,157.249 116.830,156.200 116.833 C 154.879 116.836,153.151 115.335,153.480 114.469 C 154.099 112.841,156.928 112.892,159.567 114.580 C 160.670 115.286,160.599 115.280,160.909 114.682 C 161.046 114.416,161.254 114.094,161.371 113.967 C 161.488 113.840,161.658 113.619,161.750 113.476 C 161.842 113.333,162.127 112.900,162.384 112.514 L 162.851 111.812 162.389 111.448 C 162.135 111.247,161.775 111.003,161.589 110.905 C 161.402 110.806,161.100 110.641,160.917 110.538 C 159.294 109.627,156.479 109.194,154.077 109.487 M203.583 109.492 C 200.219 110.060,196.926 113.291,196.185 116.750 C 194.513 124.561,201.055 130.609,208.917 128.520 C 210.482 128.104,212.225 127.269,213.458 126.344 L 214.000 125.937 214.000 121.719 L 214.000 117.500 209.833 117.500 L 205.667 117.500 205.667 119.417 L 205.667 121.333 207.674 121.333 L 209.681 121.333 209.632 122.604 L 209.583 123.874 208.758 124.306 C 207.515 124.956,204.804 124.945,203.576 124.286 C 198.720 121.678,199.972 114.024,205.361 113.383 C 206.837 113.207,209.631 114.210,210.217 115.125 C 210.473 115.526,210.759 115.305,212.000 113.750 C 213.504 111.865,213.498 111.926,212.250 111.086 C 210.054 109.606,206.631 108.977,203.583 109.492 M317.417 109.492 C 314.639 109.866,311.695 112.106,310.396 114.833 C 309.303 117.130,309.200 121.195,310.190 122.959 C 310.361 123.262,310.500 123.579,310.500 123.663 C 310.500 124.191,312.358 126.327,313.417 127.018 C 314.821 127.934,315.293 128.151,316.667 128.510 C 320.021 129.387,323.609 128.664,326.083 126.614 C 326.542 126.234,326.939 125.872,326.967 125.811 C 326.995 125.749,327.221 125.485,327.470 125.224 C 330.933 121.595,329.705 113.317,325.349 110.922 C 322.768 109.504,320.446 109.085,317.417 109.492 M339.750 109.565 C 339.200 109.675,338.495 109.892,338.183 110.049 C 337.871 110.205,337.555 110.333,337.480 110.333 C 336.913 110.333,333.667 113.207,333.667 113.709 C 333.667 113.795,333.515 114.078,333.330 114.338 C 330.757 117.952,332.600 125.425,336.558 127.426 C 336.911 127.604,337.436 127.872,337.725 128.020 C 339.446 128.905,342.702 129.136,345.083 128.541 C 346.352 128.224,348.520 127.267,348.639 126.972 C 348.669 126.896,348.767 126.833,348.856 126.833 C 348.945 126.833,349.276 126.627,349.592 126.375 L 350.167 125.917 350.167 121.708 L 350.167 117.500 346.000 117.500 L 341.833 117.500 341.833 119.417 L 341.833 121.333 343.833 121.333 L 345.833 121.333 345.833 122.626 L 345.833 123.919 344.958 124.325 C 342.988 125.240,340.077 124.835,338.536 123.431 C 336.679 121.738,336.147 117.841,337.533 116.080 C 337.698 115.869,337.833 115.616,337.833 115.515 C 337.833 115.415,337.890 115.333,337.958 115.332 C 338.027 115.331,338.399 115.027,338.786 114.658 C 340.732 112.797,344.034 112.974,346.461 115.070 C 346.691 115.269,346.895 115.335,346.985 115.239 C 348.459 113.674,349.796 111.667,349.365 111.667 C 349.290 111.667,349.080 111.535,348.897 111.375 C 348.425 110.960,348.003 110.698,347.333 110.403 C 347.012 110.262,346.492 110.028,346.177 109.883 C 345.036 109.361,341.623 109.192,339.750 109.565 M369.833 109.485 C 363.768 110.349,360.321 117.589,363.096 123.635 C 363.356 124.202,363.629 124.667,363.701 124.667 C 363.774 124.667,363.833 124.762,363.833 124.880 C 363.833 124.997,363.975 125.214,364.149 125.363 C 364.323 125.512,364.529 125.736,364.607 125.861 C 364.873 126.285,366.412 127.415,367.333 127.862 C 371.142 129.711,375.629 129.126,378.657 126.386 L 379.692 125.449 378.235 123.985 L 376.778 122.521 375.931 123.232 C 371.912 126.602,366.723 124.215,366.765 119.015 C 366.803 114.123,371.399 111.795,375.466 114.607 C 376.792 115.524,376.799 115.524,377.765 114.375 C 378.209 113.848,378.780 113.196,379.036 112.927 C 379.651 112.278,379.654 112.287,378.488 111.375 C 376.291 109.656,373.266 108.996,369.833 109.485 M20.500 119.042 L 20.500 128.500 27.750 128.500 L 35.000 128.500 35.000 126.583 L 35.000 124.667 29.917 124.667 L 24.833 124.667 24.833 122.833 L 24.833 121.000 29.250 121.000 L 33.667 121.000 33.667 119.000 L 33.667 117.000 29.250 117.000 L 24.833 117.000 24.833 115.250 L 24.833 113.500 29.833 113.500 L 34.833 113.500 34.833 111.542 L 34.833 109.583 27.667 109.583 L 20.500 109.583 20.500 119.042 M38.333 119.042 L 38.333 128.500 40.500 128.500 L 42.667 128.500 42.667 125.769 L 42.667 123.037 45.042 122.961 C 48.460 122.852,50.063 122.347,51.566 120.908 C 54.351 118.239,53.937 112.876,50.794 110.892 C 49.059 109.796,48.859 109.763,43.375 109.670 L 38.333 109.583 38.333 119.042 M73.500 119.042 L 73.500 128.500 75.667 128.500 L 77.833 128.500 77.833 119.042 L 77.833 109.583 75.667 109.583 L 73.500 109.583 73.500 119.042 M82.333 119.042 L 82.333 128.500 89.167 128.500 L 96.000 128.500 96.000 126.583 L 96.000 124.667 91.333 124.667 L 86.667 124.667 86.667 117.176 L 86.667 109.685 84.500 109.634 L 82.333 109.583 82.333 119.042 M122.458 109.630 L 120.500 109.677 120.500 119.089 L 120.500 128.500 122.667 128.500 L 124.833 128.500 124.833 122.806 L 124.833 117.111 125.885 118.514 C 126.463 119.285,127.484 120.629,128.152 121.500 C 129.577 123.356,131.408 125.755,132.587 127.312 L 133.424 128.417 135.295 128.464 L 137.167 128.511 137.167 119.098 L 137.167 109.686 135.083 109.635 L 132.999 109.583 132.987 115.250 C 132.979 118.367,132.932 120.812,132.882 120.685 C 132.788 120.447,132.590 120.186,131.792 119.246 C 131.540 118.949,131.333 118.625,131.333 118.526 C 131.333 118.426,131.183 118.265,131.000 118.167 C 130.817 118.069,130.667 117.878,130.667 117.744 C 130.667 117.610,130.610 117.498,130.542 117.496 C 130.473 117.494,130.192 117.157,129.917 116.747 C 129.642 116.336,129.360 116.001,129.292 116.000 C 129.223 116.000,129.167 115.890,129.167 115.756 C 129.167 115.622,129.017 115.431,128.833 115.333 C 128.650 115.235,128.500 115.045,128.500 114.911 C 128.500 114.777,128.444 114.665,128.375 114.663 C 128.306 114.661,128.025 114.324,127.750 113.913 C 127.475 113.503,127.194 113.167,127.125 113.167 C 127.056 113.167,127.000 113.071,127.000 112.954 C 127.000 112.837,126.869 112.617,126.708 112.465 C 126.401 112.175,126.369 112.136,125.590 111.083 C 125.319 110.717,125.038 110.392,124.965 110.361 C 124.893 110.331,124.833 110.208,124.833 110.090 C 124.833 109.669,124.394 109.584,122.458 109.630 M166.833 119.042 L 166.833 128.500 169.000 128.500 L 171.167 128.500 171.167 119.042 L 171.167 109.583 169.000 109.583 L 166.833 109.583 166.833 119.042 M175.667 119.042 L 175.667 128.500 177.833 128.500 L 180.000 128.500 180.000 122.821 C 180.000 117.774,180.028 117.171,180.250 117.393 C 180.387 117.530,180.500 117.698,180.500 117.766 C 180.500 117.833,180.613 118.007,180.751 118.153 C 180.888 118.298,181.268 118.754,181.594 119.167 C 181.920 119.579,182.295 120.049,182.427 120.210 C 182.559 120.372,182.667 120.553,182.667 120.613 C 182.667 120.673,182.779 120.841,182.917 120.986 C 183.055 121.131,183.435 121.587,183.761 122.000 C 184.087 122.412,184.462 122.882,184.594 123.044 C 184.725 123.205,184.833 123.384,184.833 123.442 C 184.833 123.500,185.156 123.930,185.551 124.399 C 185.945 124.867,186.448 125.513,186.667 125.833 C 186.887 126.154,187.445 126.884,187.908 127.456 L 188.750 128.496 190.625 128.498 L 192.500 128.500 192.500 119.042 L 192.500 109.583 190.333 109.583 L 188.167 109.583 188.167 115.137 C 188.167 120.073,188.139 120.663,187.917 120.440 C 187.779 120.303,187.667 120.135,187.667 120.068 C 187.667 120.000,187.553 119.826,187.413 119.681 C 187.274 119.535,186.843 119.004,186.456 118.500 C 186.069 117.996,185.695 117.558,185.626 117.528 C 185.557 117.497,185.500 117.391,185.500 117.292 C 185.500 117.193,185.386 116.993,185.247 116.847 C 185.107 116.702,184.678 116.171,184.292 115.667 C 183.907 115.162,183.552 114.712,183.504 114.667 C 183.456 114.621,183.342 114.460,183.250 114.308 C 183.077 114.022,181.077 111.387,180.194 110.281 L 179.686 109.645 177.676 109.614 L 175.667 109.583 175.667 119.042 M237.833 119.042 L 237.833 128.500 244.667 128.500 L 251.500 128.500 251.500 126.583 L 251.500 124.667 246.917 124.667 L 242.333 124.667 242.333 117.176 L 242.333 109.685 240.083 109.634 L 237.833 109.583 237.833 119.042 M260.667 109.746 C 260.667 109.976,260.513 110.351,259.572 112.417 C 258.817 114.074,258.500 114.833,258.500 114.982 C 258.500 115.066,258.358 115.424,258.184 115.776 C 258.010 116.128,257.666 116.904,257.420 117.500 C 256.948 118.641,256.552 119.536,256.000 120.708 C 255.816 121.098,255.666 121.478,255.666 121.552 C 255.666 121.626,255.492 122.076,255.278 122.552 C 255.064 123.028,254.717 123.829,254.506 124.333 C 253.882 125.826,253.576 126.528,253.111 127.542 L 252.670 128.500 254.976 128.500 L 257.283 128.500 257.576 127.792 C 257.737 127.402,258.019 126.708,258.202 126.250 C 258.385 125.792,258.652 125.172,258.795 124.872 L 259.056 124.327 262.806 124.372 L 266.556 124.417 266.849 124.917 C 267.010 125.192,267.148 125.511,267.154 125.627 C 267.161 125.742,267.311 126.155,267.487 126.543 C 267.662 126.932,267.859 127.438,267.924 127.667 C 268.150 128.473,268.240 128.500,270.678 128.500 L 272.982 128.500 272.598 127.625 C 272.207 126.731,271.486 125.044,271.049 124.000 C 270.682 123.123,269.990 121.502,269.662 120.750 C 269.502 120.383,269.169 119.596,268.922 119.000 C 268.446 117.853,268.046 116.950,267.500 115.792 C 267.316 115.402,267.166 115.013,267.166 114.928 C 267.166 114.842,267.029 114.467,266.861 114.094 C 266.693 113.722,266.346 112.929,266.090 112.333 C 265.833 111.737,265.483 110.962,265.312 110.609 C 265.140 110.257,265.000 109.863,265.000 109.734 C 265.000 109.545,264.583 109.500,262.833 109.500 C 261.036 109.500,260.667 109.542,260.667 109.746 M275.500 119.042 L 275.500 128.500 277.667 128.500 L 279.833 128.500 279.833 125.500 L 279.833 122.500 281.417 122.500 C 282.290 122.500,283.000 122.570,283.000 122.656 C 283.000 122.742,283.337 123.305,283.750 123.908 C 284.162 124.510,284.500 125.071,284.500 125.154 C 284.500 125.238,284.564 125.331,284.642 125.361 C 284.720 125.392,285.001 125.747,285.267 126.152 C 285.533 126.556,285.880 127.081,286.040 127.318 C 286.199 127.556,286.418 127.919,286.525 128.125 C 286.715 128.489,286.794 128.500,289.288 128.500 L 291.856 128.500 291.742 128.125 C 291.680 127.919,291.500 127.600,291.343 127.417 C 291.187 127.233,290.784 126.671,290.449 126.167 C 290.114 125.662,289.613 124.929,289.336 124.536 C 289.060 124.143,288.833 123.788,288.833 123.747 C 288.833 123.707,288.540 123.285,288.181 122.811 L 287.528 121.949 288.472 121.329 C 290.111 120.254,290.788 119.340,291.170 117.686 C 291.532 116.119,291.095 112.726,290.506 112.530 C 290.411 112.498,290.333 112.377,290.333 112.260 C 290.333 111.871,288.803 110.690,287.687 110.218 L 286.583 109.752 281.041 109.668 L 275.500 109.583 275.500 119.042 M294.833 119.042 L 294.833 128.500 301.667 128.500 L 308.500 128.500 308.500 126.583 L 308.500 124.667 303.833 124.667 L 299.167 124.667 299.167 117.125 L 299.167 109.583 297.000 109.583 L 294.833 109.583 294.833 119.042 M354.167 119.042 L 354.167 128.500 356.333 128.500 L 358.500 128.500 358.500 119.042 L 358.500 109.583 356.333 109.583 L 354.167 109.583 354.167 119.042 M217.343 115.792 C 217.352 121.334,217.383 122.028,217.677 123.083 C 218.233 125.082,218.325 125.333,218.500 125.333 C 218.579 125.333,218.697 125.499,218.761 125.701 C 219.642 128.477,227.372 129.926,230.190 127.842 C 230.445 127.654,230.717 127.500,230.796 127.500 C 231.297 127.500,232.703 125.630,233.302 124.167 C 233.890 122.731,233.903 122.564,233.962 116.125 L 234.021 109.667 231.844 109.667 L 229.667 109.667 229.667 115.339 C 229.667 122.380,229.559 122.879,227.767 124.191 C 226.394 125.195,223.827 124.798,222.651 123.399 C 221.809 122.399,221.755 121.954,221.699 115.625 L 221.647 109.667 219.490 109.667 L 217.333 109.667 217.343 115.792 M108.582 113.678 C 112.415 114.862,113.728 120.027,110.960 123.031 C 108.570 125.624,104.310 125.245,102.479 122.275 C 99.636 117.665,103.566 112.129,108.582 113.678 M321.023 113.614 C 325.041 114.876,326.289 119.944,323.367 123.137 C 321.359 125.332,317.802 125.315,315.647 123.100 C 311.648 118.991,315.651 111.928,321.023 113.614 M47.795 114.139 C 50.549 116.103,48.763 119.000,44.800 119.000 L 42.667 119.000 42.667 116.317 L 42.667 113.635 44.958 113.692 C 47.042 113.745,47.300 113.785,47.795 114.139 M285.181 113.811 C 286.269 114.077,286.750 114.776,286.750 116.090 C 286.750 118.185,285.905 118.667,282.229 118.667 L 279.833 118.667 279.833 116.167 L 279.833 113.667 282.292 113.686 C 283.644 113.697,284.944 113.753,285.181 113.811 M263.163 115.908 C 263.348 116.315,263.501 116.746,263.502 116.866 C 263.503 116.985,263.691 117.410,263.919 117.809 C 264.147 118.208,264.336 118.620,264.339 118.725 C 264.342 118.831,264.487 119.217,264.660 119.583 L 264.976 120.250 262.882 120.297 C 260.436 120.352,260.524 120.392,260.979 119.425 C 261.174 119.010,261.334 118.576,261.334 118.460 C 261.334 118.345,261.475 118.020,261.646 117.739 C 261.818 117.457,262.012 117.045,262.078 116.822 C 262.227 116.319,262.714 115.167,262.778 115.167 C 262.804 115.167,262.977 115.500,263.163 115.908 M70.738 144.000 C 70.738 146.063,70.762 146.906,70.791 145.875 C 70.820 144.844,70.820 143.156,70.791 142.125 C 70.762 141.094,70.738 141.938,70.738 144.000 M325.966 140.624 C 326.727 140.655,327.927 140.655,328.633 140.624 C 329.339 140.593,328.717 140.567,327.250 140.567 C 325.783 140.568,325.206 140.593,325.966 140.624 M218.458 141.290 C 218.940 141.323,219.727 141.323,220.208 141.290 C 220.690 141.256,220.296 141.228,219.333 141.228 C 218.371 141.228,217.977 141.256,218.458 141.290 M242.571 141.388 C 242.525 141.509,242.512 142.315,242.542 143.179 L 242.597 144.750 242.632 143.049 L 242.667 141.347 243.958 141.291 L 245.250 141.234 243.953 141.200 C 243.006 141.176,242.633 141.226,242.571 141.388 M263.125 141.290 C 263.790 141.322,264.877 141.322,265.542 141.290 C 266.206 141.259,265.662 141.233,264.333 141.233 C 263.004 141.233,262.460 141.259,263.125 141.290 M201.403 145.000 C 201.403 146.787,201.428 147.519,201.458 146.625 C 201.488 145.731,201.488 144.269,201.458 143.375 C 201.428 142.481,201.403 143.212,201.403 145.000 M313.903 145.167 C 313.903 146.954,313.928 147.685,313.958 146.792 C 313.988 145.898,313.988 144.435,313.958 143.542 C 313.928 142.648,313.903 143.379,313.903 145.167 M184.067 145.583 C 184.067 146.958,184.093 147.499,184.124 146.784 C 184.155 146.069,184.155 144.944,184.124 144.284 C 184.092 143.624,184.066 144.208,184.067 145.583 M196.212 144.167 C 196.212 144.579,196.245 144.748,196.284 144.542 C 196.324 144.335,196.324 143.998,196.284 143.792 C 196.245 143.585,196.212 143.754,196.212 144.167 M218.292 144.289 C 218.681 144.324,219.319 144.324,219.708 144.289 C 220.098 144.254,219.779 144.225,219.000 144.225 C 218.221 144.225,217.902 144.254,218.292 144.289 M242.558 146.833 C 242.558 147.612,242.587 147.931,242.622 147.542 C 242.657 147.152,242.657 146.515,242.622 146.125 C 242.587 145.735,242.558 146.054,242.558 146.833 M298.792 145.621 C 299.090 145.658,299.577 145.658,299.875 145.621 C 300.173 145.584,299.929 145.553,299.333 145.553 C 298.737 145.553,298.494 145.584,298.792 145.621 M306.500 146.277 C 308.319 146.399,310.130 146.406,310.058 146.292 C 310.015 146.223,309.029 146.180,307.865 146.197 C 306.702 146.213,306.087 146.249,306.500 146.277 M99.125 146.457 C 99.698 146.489,100.635 146.489,101.208 146.457 C 101.781 146.424,101.313 146.398,100.167 146.398 C 99.021 146.398,98.552 146.424,99.125 146.457 M102.379 147.167 C 102.379 147.579,102.411 147.748,102.451 147.542 C 102.491 147.335,102.491 146.998,102.451 146.792 C 102.411 146.585,102.379 146.754,102.379 147.167 M332.000 146.917 C 332.311 147.146,332.606 147.333,332.657 147.333 C 332.815 147.331,331.760 146.512,331.593 146.506 C 331.506 146.503,331.689 146.688,332.000 146.917 M274.627 148.451 C 274.834 148.491,275.134 148.490,275.294 148.448 C 275.453 148.406,275.283 148.374,274.917 148.375 C 274.550 148.377,274.420 148.411,274.627 148.451 M282.377 148.453 C 282.631 148.491,283.006 148.490,283.211 148.451 C 283.416 148.411,283.208 148.380,282.750 148.381 C 282.292 148.382,282.124 148.415,282.377 148.453 M328.877 148.453 C 329.131 148.491,329.506 148.490,329.711 148.451 C 329.916 148.411,329.708 148.380,329.250 148.381 C 328.792 148.382,328.624 148.415,328.877 148.453 " stroke="none" fill="#444444" fill-rule="evenodd"></path><path id="path1" d="M177.417 70.167 C 178.053 70.808,178.612 71.333,178.658 71.333 C 178.704 71.333,178.220 70.808,177.583 70.167 C 176.947 69.525,176.388 69.000,176.342 69.000 C 176.296 69.000,176.780 69.525,177.417 70.167 M173.833 71.379 C 173.833 71.404,174.415 71.986,175.125 72.671 L 176.417 73.917 175.171 72.625 C 174.014 71.425,173.833 71.257,173.833 71.379 M24.125 109.625 C 26.073 109.651,29.260 109.651,31.208 109.625 C 33.156 109.598,31.563 109.576,27.667 109.576 C 23.771 109.576,22.177 109.598,24.125 109.625 M40.542 109.625 C 41.710 109.653,43.623 109.653,44.792 109.625 C 45.960 109.596,45.004 109.572,42.667 109.572 C 40.329 109.572,39.373 109.596,40.542 109.625 M74.625 109.623 C 75.198 109.656,76.135 109.656,76.708 109.623 C 77.281 109.591,76.813 109.564,75.667 109.564 C 74.521 109.564,74.052 109.591,74.625 109.623 M83.458 109.623 C 84.031 109.656,84.969 109.656,85.542 109.623 C 86.115 109.591,85.646 109.564,84.500 109.564 C 83.354 109.564,82.885 109.591,83.458 109.623 M121.465 109.624 C 122.041 109.656,122.941 109.656,123.465 109.623 C 123.988 109.590,123.517 109.563,122.417 109.564 C 121.317 109.564,120.888 109.591,121.465 109.624 M134.125 109.623 C 134.698 109.656,135.635 109.656,136.208 109.623 C 136.781 109.591,136.313 109.564,135.167 109.564 C 134.021 109.564,133.552 109.591,134.125 109.623 M167.958 109.623 C 168.531 109.656,169.469 109.656,170.042 109.623 C 170.615 109.591,170.146 109.564,169.000 109.564 C 167.854 109.564,167.385 109.591,167.958 109.623 M176.708 109.623 C 177.235 109.656,178.098 109.656,178.625 109.623 C 179.152 109.590,178.721 109.563,177.667 109.563 C 176.612 109.563,176.181 109.590,176.708 109.623 M189.292 109.623 C 189.865 109.656,190.802 109.656,191.375 109.623 C 191.948 109.591,191.479 109.564,190.333 109.564 C 189.188 109.564,188.719 109.591,189.292 109.623 M218.549 109.624 C 219.171 109.656,220.146 109.656,220.715 109.623 C 221.284 109.591,220.775 109.564,219.583 109.565 C 218.392 109.565,217.926 109.592,218.549 109.624 M230.715 109.624 C 231.338 109.656,232.313 109.656,232.882 109.623 C 233.451 109.591,232.942 109.564,231.750 109.565 C 230.558 109.565,230.093 109.592,230.715 109.624 M239.049 109.624 C 239.671 109.656,240.646 109.656,241.215 109.623 C 241.784 109.591,241.275 109.564,240.083 109.565 C 238.892 109.565,238.426 109.592,239.049 109.624 M277.958 109.625 C 279.265 109.653,281.402 109.653,282.708 109.625 C 284.015 109.596,282.946 109.573,280.333 109.573 C 277.721 109.573,276.652 109.596,277.958 109.625 M295.958 109.623 C 296.531 109.656,297.469 109.656,298.042 109.623 C 298.615 109.591,298.146 109.564,297.000 109.564 C 295.854 109.564,295.385 109.591,295.958 109.623 M355.292 109.623 C 355.865 109.656,356.802 109.656,357.375 109.623 C 357.948 109.591,357.479 109.564,356.333 109.564 C 355.188 109.564,354.719 109.591,355.292 109.623 M117.083 140.275 C 114.273 141.124,113.349 144.961,115.472 146.960 C 116.986 148.385,119.803 148.340,121.198 146.869 C 124.080 143.830,121.103 139.060,117.083 140.275 M63.167 144.009 L 63.167 147.852 63.958 147.801 L 64.750 147.750 64.796 145.353 L 64.843 142.956 65.846 144.478 C 67.068 146.334,66.872 146.350,68.215 144.292 L 69.330 142.583 69.331 145.208 L 69.333 147.833 70.042 147.833 L 70.750 147.833 70.750 144.000 L 70.750 140.167 69.952 140.167 L 69.154 140.167 68.164 141.698 C 67.619 142.541,67.134 143.310,67.087 143.407 C 67.026 143.530,66.974 143.530,66.913 143.405 C 66.865 143.306,66.376 142.538,65.826 141.696 L 64.827 140.167 63.997 140.167 L 63.167 140.167 63.167 144.009 M72.372 143.958 L 72.417 147.750 75.385 147.796 L 78.353 147.841 78.301 147.129 L 78.250 146.417 76.125 146.370 L 74.000 146.323 74.000 145.500 L 74.000 144.678 75.875 144.630 L 77.750 144.583 77.802 143.958 L 77.853 143.333 75.927 143.333 L 74.000 143.333 74.000 142.403 L 74.000 141.473 76.084 141.528 L 78.167 141.583 78.167 140.875 L 78.167 140.167 75.247 140.167 L 72.327 140.167 72.372 143.958 M79.611 140.278 C 79.550 140.339,79.500 142.064,79.500 144.111 L 79.500 147.833 80.329 147.833 L 81.158 147.833 81.204 145.399 L 81.250 142.965 82.248 144.483 C 83.285 146.059,83.476 146.212,83.752 145.686 C 83.843 145.513,84.292 144.820,84.750 144.144 L 85.583 142.917 85.629 145.375 L 85.676 147.833 86.421 147.833 L 87.167 147.833 87.167 144.000 L 87.167 140.167 86.352 140.167 L 85.538 140.167 84.644 141.568 C 84.152 142.339,83.669 143.105,83.570 143.269 C 83.404 143.545,81.770 141.398,81.388 140.401 C 81.295 140.159,79.832 140.057,79.611 140.278 M88.944 140.278 C 88.883 140.339,88.833 142.064,88.833 144.111 L 88.833 147.833 90.979 147.833 C 93.651 147.833,94.073 147.749,94.737 147.086 C 95.553 146.269,95.562 145.195,94.759 144.392 L 94.168 143.801 94.501 143.378 C 95.267 142.404,94.733 140.722,93.545 140.366 C 92.846 140.157,89.137 140.086,88.944 140.278 M96.611 140.278 C 96.550 140.339,96.500 142.064,96.500 144.111 L 96.500 147.833 99.417 147.833 L 102.333 147.833 102.333 147.167 L 102.333 146.500 100.250 146.500 L 98.167 146.500 98.167 145.672 L 98.167 144.845 99.958 144.797 L 101.750 144.750 101.801 144.042 L 101.852 143.333 100.010 143.333 L 98.167 143.333 98.167 142.500 L 98.167 141.667 100.250 141.667 L 102.333 141.667 102.333 140.917 L 102.333 140.167 99.528 140.167 C 97.985 140.167,96.672 140.217,96.611 140.278 M103.667 143.984 L 103.667 147.833 104.500 147.833 L 105.333 147.833 105.333 146.583 L 105.333 145.333 106.042 145.334 C 106.606 145.334,106.801 145.414,107.000 145.730 C 108.274 147.749,108.414 147.865,109.479 147.801 L 110.318 147.750 109.409 146.503 C 108.367 145.075,108.359 145.046,108.910 144.836 C 109.860 144.475,110.312 142.431,109.673 141.383 C 109.104 140.450,108.525 140.265,105.958 140.196 L 103.667 140.135 103.667 143.984 M123.778 140.278 C 123.717 140.339,123.667 142.101,123.667 144.194 L 123.667 148.000 124.417 148.000 L 125.167 148.000 125.167 146.417 L 125.167 144.833 127.083 144.833 L 129.000 144.833 129.000 144.167 L 129.000 143.500 127.083 143.500 L 125.167 143.500 125.167 142.583 L 125.167 141.667 127.333 141.667 L 129.500 141.667 129.500 140.917 L 129.500 140.167 126.694 140.167 C 125.151 140.167,123.839 140.217,123.778 140.278 M149.428 140.370 C 147.277 141.152,147.609 144.084,149.917 144.685 C 150.283 144.780,150.868 144.932,151.216 145.021 C 151.642 145.131,151.912 145.324,152.043 145.612 C 152.528 146.676,150.556 147.023,149.185 146.115 L 148.529 145.681 148.106 146.236 L 147.683 146.790 148.073 147.157 C 148.473 147.533,150.245 148.167,150.890 148.166 C 154.216 148.157,154.703 144.182,151.461 143.509 C 150.342 143.277,149.500 142.775,149.500 142.342 C 149.500 141.623,150.769 141.456,151.996 142.012 C 152.803 142.378,152.857 142.357,153.345 141.470 C 153.793 140.656,150.886 139.841,149.428 140.370 M167.389 140.400 C 167.099 140.531,166.835 140.613,166.803 140.581 C 166.650 140.427,165.480 141.675,165.098 142.400 C 162.905 146.554,168.905 150.364,171.828 146.673 C 174.233 143.636,170.839 138.839,167.389 140.400 M133.872 144.125 L 133.917 147.917 136.792 147.962 L 139.667 148.008 139.667 147.254 L 139.667 146.500 137.583 146.500 L 135.500 146.500 135.500 145.667 L 135.500 144.833 137.333 144.833 L 139.167 144.833 139.167 144.167 L 139.167 143.500 137.333 143.500 L 135.500 143.500 135.500 142.583 L 135.500 141.667 137.583 141.667 L 139.667 141.667 139.667 141.000 L 139.667 140.333 136.747 140.333 L 133.827 140.333 133.872 144.125 M141.000 144.160 L 141.000 148.018 141.792 147.967 L 142.583 147.917 142.633 146.792 L 142.682 145.667 143.466 145.648 C 145.658 145.595,146.592 145.017,147.013 143.453 C 147.552 141.448,146.343 140.434,143.323 140.359 L 141.000 140.301 141.000 144.160 M155.167 144.167 L 155.167 148.000 155.917 148.000 L 156.667 148.000 156.667 144.167 L 156.667 140.333 155.917 140.333 L 155.167 140.333 155.167 144.167 M158.333 144.167 L 158.333 148.000 161.083 148.000 L 163.833 148.000 163.833 147.250 L 163.833 146.500 161.917 146.500 L 160.000 146.500 160.000 143.417 L 160.000 140.333 159.167 140.333 L 158.333 140.333 158.333 144.167 M174.075 140.546 C 174.030 140.663,174.013 142.369,174.038 144.337 L 174.083 147.917 174.787 147.968 L 175.491 148.019 175.537 145.471 L 175.583 142.924 176.245 143.837 C 176.608 144.339,176.951 144.787,177.006 144.833 C 177.097 144.909,178.270 146.443,179.081 147.549 C 179.351 147.917,179.543 148.000,180.123 148.000 L 180.833 148.000 180.833 144.158 L 180.833 140.315 180.042 140.366 L 179.250 140.417 179.167 142.714 L 179.083 145.011 178.211 143.880 C 177.731 143.259,176.919 142.206,176.407 141.542 C 175.460 140.313,174.347 139.837,174.075 140.546 M182.500 144.167 L 182.500 148.000 183.250 148.000 L 184.000 148.000 184.006 145.542 L 184.012 143.083 184.343 143.500 C 185.791 145.320,186.366 146.052,187.058 146.958 C 187.796 147.925,187.900 148.000,188.510 148.000 L 189.167 148.000 189.167 144.167 L 189.167 140.333 188.417 140.333 L 187.667 140.333 187.667 142.771 L 187.667 145.209 186.832 144.146 C 185.779 142.805,185.653 142.642,184.700 141.379 C 183.957 140.395,183.880 140.341,183.208 140.337 L 182.500 140.333 182.500 144.167 M190.944 140.444 C 190.883 140.506,190.833 142.221,190.833 144.257 L 190.833 147.958 191.354 148.063 C 191.641 148.120,192.953 148.167,194.271 148.167 L 196.667 148.167 196.667 147.417 L 196.667 146.667 194.583 146.667 L 192.500 146.667 192.500 145.750 L 192.500 144.833 194.333 144.833 L 196.167 144.833 196.167 144.167 L 196.167 143.500 194.333 143.500 L 192.500 143.500 192.500 142.667 L 192.500 141.833 194.583 141.833 L 196.667 141.833 196.667 141.083 L 196.667 140.333 193.861 140.333 C 192.318 140.333,191.006 140.383,190.944 140.444 M197.500 141.083 L 197.500 141.833 198.750 141.833 L 200.000 141.833 200.000 145.000 L 200.000 148.167 200.667 148.167 L 201.333 148.167 201.333 145.000 L 201.333 141.833 202.583 141.833 L 203.833 141.833 203.833 141.191 L 203.833 140.549 202.458 140.442 C 201.702 140.383,200.277 140.335,199.292 140.334 L 197.500 140.333 197.500 141.083 M210.708 140.520 C 210.594 140.637,210.500 140.676,210.500 140.605 C 210.500 140.535,210.256 140.649,209.958 140.858 C 206.043 143.611,208.959 149.581,213.449 148.003 C 215.010 147.454,215.187 147.191,215.131 145.507 L 215.083 144.083 213.458 144.036 L 211.833 143.988 211.833 144.411 C 211.833 144.826,211.856 144.833,213.083 144.833 L 214.333 144.833 214.333 145.724 C 214.333 148.605,209.516 147.860,209.074 144.910 C 208.641 142.027,211.589 139.961,213.774 141.616 C 214.272 141.993,214.312 141.998,214.588 141.722 C 214.884 141.425,214.235 140.619,213.623 140.524 C 212.416 140.336,210.889 140.334,210.708 140.520 M226.890 140.484 C 225.095 140.941,223.872 143.291,224.390 145.287 C 225.727 150.443,233.009 148.438,231.844 143.235 C 231.627 142.262,230.281 140.605,229.646 140.528 C 228.532 140.393,227.325 140.374,226.890 140.484 M254.510 140.544 C 252.067 141.151,250.977 144.646,252.559 146.800 C 254.361 149.255,258.272 148.646,259.228 145.762 C 260.302 142.520,257.779 139.731,254.510 140.544 M216.833 144.333 L 216.833 148.167 217.250 148.167 C 217.665 148.167,217.667 148.161,217.667 146.583 L 217.667 145.000 218.819 145.000 C 219.453 145.000,219.997 145.073,220.028 145.163 C 220.277 145.892,222.297 148.150,222.708 148.158 C 223.339 148.170,223.316 148.113,221.995 146.429 L 220.829 144.942 221.426 144.737 C 223.157 144.141,223.475 142.190,222.033 141.002 L 221.424 140.500 219.129 140.500 L 216.833 140.500 216.833 144.333 M233.502 143.125 C 233.504 147.115,234.206 148.246,236.678 148.249 C 239.163 148.251,239.824 147.192,239.830 143.197 L 239.833 140.477 239.458 140.530 C 239.090 140.582,239.082 140.634,239.000 143.417 C 238.894 147.014,238.608 147.501,236.600 147.499 C 234.811 147.498,234.440 146.801,234.362 143.292 L 234.300 140.500 233.900 140.500 L 233.500 140.500 233.502 143.125 M241.833 144.333 C 241.833 148.056,241.843 148.167,242.167 148.167 C 242.472 148.167,242.500 148.056,242.500 146.833 L 242.500 145.500 243.458 145.494 C 246.174 145.476,247.500 144.614,247.500 142.866 C 247.500 141.205,246.371 140.501,243.708 140.500 L 241.833 140.500 241.833 144.333 M261.205 144.371 C 261.249 148.124,261.261 148.250,261.583 148.250 C 261.892 148.250,261.920 148.123,261.964 146.542 L 262.012 144.833 264.089 144.833 C 266.056 144.833,266.167 144.816,266.167 144.500 C 266.167 144.184,266.056 144.167,264.083 144.167 L 262.000 144.167 262.000 142.667 L 262.000 141.167 264.346 141.167 C 266.490 141.167,266.686 141.142,266.635 140.875 C 266.585 140.614,266.296 140.579,263.870 140.538 L 261.161 140.492 261.205 144.371 M272.901 140.956 C 269.594 143.188,270.933 148.330,274.822 148.333 C 276.424 148.334,278.417 147.220,277.772 146.685 C 277.581 146.526,277.372 146.588,276.737 146.991 C 274.795 148.223,272.725 147.523,272.059 145.410 C 271.124 142.442,274.139 140.049,276.670 141.752 C 277.245 142.139,277.525 142.242,277.653 142.113 C 278.796 140.970,274.449 139.912,272.901 140.956 M281.000 140.790 C 277.349 143.177,278.634 148.333,282.879 148.333 C 286.955 148.333,288.075 142.839,284.431 140.714 C 283.899 140.404,281.509 140.457,281.000 140.790 M288.350 140.729 C 287.934 141.232,288.188 148.241,288.625 148.303 L 289.000 148.357 289.000 145.241 C 289.000 141.968,289.074 141.728,289.709 142.937 C 289.953 143.399,291.851 146.167,291.925 146.167 C 291.952 146.167,292.562 145.323,293.279 144.292 L 294.583 142.417 294.677 145.333 C 294.783 148.641,294.732 148.333,295.167 148.333 C 295.486 148.333,295.500 148.222,295.500 145.692 C 295.500 144.239,295.549 142.476,295.608 141.775 C 295.744 140.160,295.248 139.958,294.376 141.271 C 293.446 142.672,292.023 144.699,291.953 144.722 C 291.846 144.757,289.766 141.776,289.386 141.042 C 289.090 140.472,288.670 140.345,288.350 140.729 M297.705 140.628 C 297.263 140.933,297.504 148.239,297.958 148.303 C 298.322 148.355,298.333 148.314,298.333 146.926 L 298.333 145.496 299.714 145.515 C 302.132 145.549,303.167 144.776,303.167 142.935 C 303.167 141.787,302.940 141.405,301.953 140.890 C 301.353 140.576,298.074 140.374,297.705 140.628 M307.037 141.625 C 306.755 142.244,305.993 143.906,305.345 145.319 C 304.067 148.104,304.003 148.333,304.492 148.333 C 304.709 148.333,304.909 148.124,305.090 147.708 C 305.769 146.148,305.568 146.255,307.897 146.203 L 309.982 146.157 310.486 147.245 C 310.912 148.166,311.054 148.333,311.411 148.333 C 311.917 148.333,311.922 148.297,311.514 147.523 C 311.146 146.823,310.232 144.858,309.081 142.292 C 308.066 140.026,307.805 139.940,307.037 141.625 M313.167 144.417 C 313.167 148.222,313.176 148.333,313.500 148.333 C 313.822 148.333,313.834 148.220,313.839 145.125 L 313.845 141.917 314.261 142.417 C 314.490 142.692,315.631 144.134,316.797 145.621 C 318.414 147.685,319.006 148.327,319.295 148.329 L 319.673 148.333 319.628 144.458 L 319.583 140.583 319.208 140.530 L 318.833 140.477 318.833 143.675 C 318.833 146.500,318.804 146.850,318.583 146.667 C 318.446 146.553,318.333 146.356,318.333 146.230 C 318.333 146.103,318.272 146.000,318.196 146.000 C 318.121 146.000,317.096 144.762,315.919 143.250 C 313.037 139.547,313.167 139.492,313.167 144.417 M321.635 143.945 C 321.618 145.808,321.599 147.540,321.594 147.792 C 321.585 148.172,321.654 148.250,322.000 148.250 L 322.417 148.250 322.417 144.430 L 322.417 140.611 322.042 140.583 L 321.667 140.556 321.635 143.945 M324.500 144.458 L 324.500 148.333 327.250 148.333 C 329.889 148.333,330.000 148.320,330.000 148.000 C 330.000 147.683,329.889 147.667,327.667 147.667 L 325.333 147.667 325.333 146.250 L 325.333 144.833 327.417 144.833 C 329.389 144.833,329.500 144.816,329.500 144.500 C 329.500 144.184,329.389 144.167,327.417 144.167 L 325.333 144.167 325.333 142.750 L 325.333 141.333 327.667 141.333 C 329.975 141.333,330.000 141.329,330.000 140.958 C 330.000 140.585,329.991 140.583,327.250 140.583 L 324.500 140.583 324.500 144.458 M332.597 140.810 C 331.844 141.252,331.455 141.885,331.455 142.667 C 331.455 143.912,331.903 144.243,334.667 145.039 C 335.964 145.412,336.405 146.474,335.581 147.238 C 334.809 147.953,333.191 147.842,332.122 147.000 C 331.607 146.596,331.402 146.581,331.265 146.938 C 330.861 147.990,334.421 148.909,335.769 148.100 C 337.729 146.924,337.008 144.685,334.498 144.153 C 332.547 143.739,331.803 142.996,332.411 142.068 C 333.047 141.098,334.329 140.983,335.570 141.786 C 336.190 142.188,336.235 142.194,336.442 141.910 C 337.136 140.961,333.911 140.039,332.597 140.810 M221.226 141.353 C 221.902 141.661,222.269 142.517,222.002 143.161 C 221.652 144.007,221.177 144.209,219.323 144.298 L 217.667 144.378 217.667 142.772 L 217.667 141.167 219.242 141.167 C 220.109 141.167,221.002 141.250,221.226 141.353 M229.606 141.482 C 232.825 143.472,230.440 148.719,226.979 147.264 C 224.819 146.355,224.450 143.091,226.349 141.694 C 227.187 141.078,228.783 140.974,229.606 141.482 M245.567 141.399 C 247.914 142.380,246.646 144.667,243.755 144.667 L 242.500 144.667 242.500 143.028 C 242.500 142.126,242.550 141.339,242.611 141.278 C 242.815 141.074,245.003 141.164,245.567 141.399 M257.389 141.740 C 260.264 143.933,257.804 148.739,254.528 147.330 C 252.031 146.255,252.012 142.314,254.500 141.279 C 255.128 141.018,256.790 141.283,257.389 141.740 M284.347 141.651 C 285.595 142.460,286.149 144.255,285.575 145.628 C 284.379 148.492,280.560 148.197,279.838 145.185 C 279.177 142.432,282.063 140.170,284.347 141.651 M301.498 141.582 C 303.659 142.700,302.352 144.833,299.505 144.833 L 298.333 144.833 298.333 143.083 L 298.333 141.333 299.675 141.333 C 300.539 141.333,301.188 141.422,301.498 141.582 M119.045 141.700 C 121.282 142.370,121.194 145.986,118.929 146.497 C 116.011 147.155,114.709 142.511,117.577 141.677 C 118.275 141.474,118.293 141.475,119.045 141.700 M93.011 141.839 C 94.048 142.394,93.075 143.333,91.463 143.333 L 90.333 143.333 90.333 142.500 L 90.333 141.667 91.511 141.667 C 92.159 141.667,92.834 141.744,93.011 141.839 M107.895 141.854 C 108.120 141.956,108.348 142.200,108.400 142.395 C 108.685 143.457,108.209 143.833,106.583 143.833 L 105.333 143.833 105.333 142.750 L 105.333 141.667 106.409 141.667 C 107.000 141.667,107.669 141.751,107.895 141.854 M144.540 141.842 C 146.298 142.330,145.614 144.167,143.674 144.167 L 142.667 144.167 142.667 142.917 L 142.667 141.667 143.292 141.668 C 143.635 141.668,144.197 141.746,144.540 141.842 M170.041 142.098 C 172.122 143.657,170.848 146.958,168.298 146.616 C 166.125 146.325,165.613 143.199,167.540 141.989 C 168.207 141.570,169.406 141.622,170.041 142.098 M308.818 143.631 L 309.650 145.500 307.908 145.500 C 306.950 145.500,306.167 145.469,306.167 145.432 C 306.167 145.394,306.422 144.813,306.735 144.140 C 307.047 143.467,307.423 142.624,307.570 142.266 C 307.898 141.469,307.813 141.377,308.818 143.631 M92.994 144.774 C 94.743 145.124,93.814 146.389,91.745 146.475 L 90.333 146.534 90.333 145.600 L 90.333 144.667 91.396 144.667 C 91.980 144.667,92.699 144.715,92.994 144.774 " stroke="none" fill="#5c5c5c" fill-rule="evenodd"></path><path id="path2" d="M194.083 15.705 C 192.829 15.945,191.211 16.630,190.000 17.433 C 188.966 18.120,175.932 30.833,176.263 30.833 C 176.343 30.833,175.850 31.396,175.167 32.083 C 174.484 32.771,173.857 33.333,173.773 33.333 C 173.574 33.333,162.168 44.765,161.718 45.417 C 159.023 49.310,158.829 54.282,161.209 58.395 C 161.834 59.475,173.362 71.333,173.786 71.333 C 173.958 71.333,176.333 73.711,176.333 73.882 C 176.333 74.054,188.777 86.481,189.502 87.033 C 193.311 89.934,199.233 89.949,203.500 87.068 C 204.581 86.338,230.449 60.585,231.358 59.333 C 234.102 55.556,234.084 48.072,231.325 45.575 C 231.146 45.414,231.000 45.218,231.000 45.140 C 231.000 45.062,228.319 42.345,225.042 39.102 C 221.765 35.859,218.558 32.677,217.917 32.030 C 210.250 24.304,203.958 18.026,203.642 17.786 C 201.111 15.865,197.433 15.065,194.083 15.705 M198.226 19.255 C 200.627 19.854,200.721 19.933,209.972 29.077 C 212.295 31.372,214.751 33.769,215.431 34.404 C 216.110 35.039,216.667 35.615,216.667 35.683 C 216.667 35.751,219.319 38.456,222.560 41.695 C 229.745 48.874,229.743 48.872,229.735 52.250 C 229.727 55.907,229.471 56.228,215.511 70.083 C 200.362 85.120,200.951 84.590,198.571 85.325 C 194.659 86.533,193.332 85.768,185.168 77.592 C 181.730 74.150,178.837 71.333,178.739 71.333 C 178.640 71.333,178.039 70.767,177.404 70.075 C 176.769 69.383,173.660 66.177,170.495 62.950 C 167.329 59.723,164.574 56.844,164.372 56.551 C 163.192 54.843,162.758 51.500,163.504 49.857 C 163.685 49.457,163.833 49.044,163.833 48.940 C 163.833 48.433,165.497 46.624,171.867 40.209 C 179.012 33.014,191.223 21.000,191.878 20.522 C 193.681 19.205,196.095 18.724,198.226 19.255 " stroke="none" fill="#044c93" fill-rule="evenodd"></path><path id="path3" d="M252.583 11.696 C 251.590 12.251,251.369 12.907,251.827 13.941 C 252.205 14.796,277.160 39.939,278.333 40.647 C 279.193 41.165,279.707 41.104,280.316 40.411 L 280.833 39.822 280.830 27.453 C 280.825 12.737,280.934 13.347,278.083 11.980 L 277.083 11.500 265.000 11.505 C 256.415 11.509,252.820 11.564,252.583 11.696 M153.333 15.758 C 152.073 16.012,150.679 16.602,149.389 17.427 C 148.334 18.102,122.037 44.315,121.226 45.500 C 118.425 49.593,118.409 54.976,121.185 59.096 C 121.853 60.088,148.867 87.167,149.188 87.167 C 149.337 87.167,149.546 87.272,149.653 87.400 C 151.159 89.215,157.978 89.756,160.783 88.284 C 161.040 88.149,161.531 87.900,161.875 87.731 C 162.219 87.562,162.500 87.366,162.500 87.295 C 162.500 87.225,162.624 87.167,162.775 87.167 C 162.926 87.167,166.040 84.188,169.695 80.547 L 176.340 73.926 175.021 72.607 L 173.702 71.288 167.434 77.563 C 163.856 81.145,160.791 84.074,160.291 84.389 C 157.647 86.055,154.227 86.005,151.619 84.263 C 150.394 83.444,124.331 57.282,123.790 56.327 C 122.541 54.125,122.305 51.527,123.177 49.583 C 123.259 49.400,123.394 49.063,123.477 48.833 C 123.843 47.819,125.901 45.663,138.114 33.493 C 152.157 19.499,151.740 19.868,154.177 19.269 C 155.554 18.930,156.429 18.929,157.726 19.265 C 159.966 19.845,160.254 20.066,165.417 25.152 C 168.075 27.771,171.035 30.684,171.994 31.625 L 173.739 33.337 174.953 32.131 C 175.620 31.468,176.167 30.865,176.167 30.792 C 176.167 30.635,164.598 19.072,163.430 18.061 C 161.003 15.961,156.930 15.031,153.333 15.758 M177.504 34.579 L 176.267 35.825 176.675 36.261 C 177.146 36.765,185.247 44.799,186.261 45.769 C 188.693 48.094,189.641 50.487,189.289 53.416 C 188.990 55.896,188.642 56.356,182.129 62.882 C 178.942 66.077,176.333 68.743,176.333 68.808 C 176.333 68.872,176.895 69.483,177.581 70.164 L 178.829 71.404 180.873 69.413 C 189.494 61.015,190.829 59.597,191.619 57.997 C 193.696 53.795,193.333 48.907,190.680 45.339 C 190.310 44.842,178.909 33.333,178.786 33.333 C 178.762 33.333,178.185 33.894,177.504 34.579 " stroke="none" fill="#c4341c" fill-rule="evenodd"></path><path id="path4" d="M174.912 32.208 L 173.750 33.417 174.958 32.254 C 176.081 31.175,176.243 31.000,176.121 31.000 C 176.095 31.000,175.551 31.544,174.912 32.208 M177.412 34.542 L 176.250 35.750 177.458 34.588 C 178.581 33.508,178.743 33.333,178.621 33.333 C 178.595 33.333,178.051 33.877,177.412 34.542 " stroke="none" fill="#9c3c34" fill-rule="evenodd"></path></g></svg>