<svg id="svg" version="1.1" xmlns="http://www.w3.org/2000/svg" xmlns:xlink="http://www.w3.org/1999/xlink" width="400" height="213.5363790186125" viewBox="0, 0, 400,213.5363790186125"><g id="svgg"><path id="path0" d="M132.314 0.237 C 131.617 0.339,130.949 0.519,130.830 0.638 C 130.711 0.757,130.441 0.854,130.230 0.854 C 130.018 0.854,129.845 0.946,129.845 1.058 C 129.845 1.170,129.509 1.325,129.098 1.402 C 128.687 1.479,128.350 1.617,128.350 1.709 C 128.350 1.801,128.108 1.937,127.812 2.011 C 127.516 2.085,127.022 2.360,126.714 2.621 C 125.984 3.242,124.663 4.424,124.427 4.669 C 123.872 5.244,122.990 6.117,122.751 6.329 C 122.600 6.462,122.073 6.991,121.579 7.503 C 121.085 8.016,120.556 8.557,120.404 8.705 C 120.048 9.053,118.909 10.192,118.633 10.476 C 118.516 10.597,118.000 11.101,117.487 11.595 C 116.975 12.089,116.446 12.617,116.313 12.767 C 116.179 12.918,115.795 13.315,115.458 13.649 C 115.121 13.984,114.736 14.369,114.603 14.506 C 114.471 14.643,113.942 15.159,113.430 15.653 C 112.917 16.147,112.388 16.674,112.255 16.825 C 112.122 16.975,111.737 17.372,111.400 17.707 C 110.639 18.463,110.507 18.594,109.752 19.355 C 109.417 19.692,109.020 20.077,108.870 20.210 C 108.719 20.343,108.192 20.872,107.697 21.385 C 107.203 21.898,106.687 22.426,106.551 22.559 C 106.414 22.691,106.029 23.076,105.694 23.413 C 105.359 23.750,104.962 24.135,104.812 24.268 C 104.661 24.401,104.134 24.930,103.640 25.442 C 103.146 25.955,102.630 26.483,102.493 26.616 C 102.357 26.749,101.957 27.146,101.604 27.498 C 101.252 27.851,100.867 28.235,100.750 28.353 C 100.472 28.630,98.606 30.496,98.401 30.702 C 98.314 30.789,97.930 31.173,97.547 31.556 C 97.163 31.939,96.754 32.352,96.636 32.473 C 96.519 32.594,96.003 33.098,95.491 33.592 C 94.978 34.086,94.449 34.613,94.316 34.764 C 94.183 34.914,93.785 35.324,93.433 35.674 C 93.081 36.024,92.696 36.409,92.579 36.531 C 92.461 36.652,91.946 37.155,91.433 37.649 C 90.920 38.144,90.392 38.671,90.258 38.822 C 90.125 38.972,89.740 39.369,89.403 39.704 C 89.066 40.038,88.682 40.421,88.549 40.555 C 88.416 40.689,88.039 41.060,87.710 41.381 C 87.382 41.702,86.854 42.245,86.536 42.588 C 86.218 42.930,85.550 43.600,85.051 44.077 C 84.552 44.554,84.143 45.067,84.143 45.216 C 84.143 45.366,84.053 45.489,83.944 45.489 C 83.834 45.489,83.678 45.697,83.597 45.953 C 83.516 46.208,83.263 46.616,83.034 46.860 C 82.806 47.104,82.565 47.568,82.500 47.891 C 82.435 48.214,82.306 48.478,82.213 48.478 C 82.121 48.478,81.980 48.863,81.901 49.333 C 81.821 49.802,81.675 50.187,81.576 50.187 C 81.477 50.187,81.329 50.956,81.247 51.895 C 81.165 52.835,81.014 53.604,80.912 53.604 C 80.810 53.604,80.726 54.517,80.726 55.633 C 80.726 56.749,80.808 57.662,80.908 57.662 C 81.009 57.662,81.153 58.401,81.229 59.304 C 81.306 60.208,81.450 61.001,81.550 61.066 C 81.650 61.132,81.799 61.546,81.880 61.986 C 81.961 62.427,82.111 62.787,82.214 62.787 C 82.317 62.787,82.464 63.075,82.541 63.428 C 82.619 63.780,82.771 64.068,82.879 64.068 C 82.987 64.068,83.075 64.212,83.075 64.389 C 83.075 64.565,83.170 64.709,83.285 64.709 C 83.400 64.709,83.555 64.949,83.628 65.243 C 83.702 65.537,83.833 65.777,83.919 65.777 C 84.005 65.777,84.254 66.107,84.471 66.511 C 84.689 66.915,84.944 67.198,85.039 67.139 C 85.133 67.081,85.211 67.127,85.211 67.243 C 85.211 67.537,90.709 73.021,90.856 72.874 C 90.923 72.807,90.977 72.859,90.977 72.988 C 90.977 73.248,125.514 107.848,125.773 107.848 C 125.862 107.848,126.214 108.091,126.555 108.388 C 126.896 108.684,127.392 108.983,127.656 109.052 C 127.920 109.120,128.137 109.254,128.137 109.349 C 128.137 109.445,128.425 109.586,128.777 109.664 C 129.130 109.741,129.418 109.892,129.418 109.998 C 129.418 110.105,129.802 110.254,130.272 110.329 C 130.742 110.404,131.127 110.550,131.127 110.652 C 131.127 110.754,131.396 110.838,131.725 110.838 C 132.053 110.838,132.443 110.958,132.590 111.105 C 132.784 111.300,133.936 111.372,136.832 111.372 C 139.823 111.372,140.830 111.306,140.897 111.105 C 140.946 110.958,141.266 110.838,141.609 110.838 C 141.951 110.838,142.232 110.754,142.232 110.652 C 142.232 110.550,142.616 110.404,143.086 110.329 C 143.556 110.254,143.940 110.098,143.940 109.981 C 143.940 109.865,144.042 109.770,144.165 109.770 C 144.582 109.770,146.289 108.908,146.289 108.697 C 146.289 108.583,146.392 108.489,146.518 108.489 C 146.644 108.489,146.874 108.369,147.030 108.222 C 147.185 108.075,147.623 107.715,148.003 107.421 C 149.312 106.408,167.432 88.179,167.432 87.875 C 167.432 87.535,164.739 84.784,164.407 84.784 C 164.225 84.784,163.489 85.404,162.655 86.263 C 162.522 86.399,161.994 86.915,161.481 87.409 C 160.968 87.903,160.440 88.431,160.306 88.581 C 160.096 88.818,159.325 89.598,158.622 90.283 C 158.503 90.399,157.589 91.310,156.591 92.309 C 155.592 93.307,154.679 94.220,154.562 94.338 C 154.444 94.455,153.531 95.368,152.533 96.366 C 151.535 97.365,150.622 98.278,150.504 98.395 C 146.051 102.849,146.520 102.375,145.607 103.338 C 145.259 103.705,144.861 104.004,144.722 104.004 C 144.583 104.004,144.288 104.245,144.068 104.538 C 143.847 104.832,143.536 105.072,143.376 105.072 C 143.217 105.072,143.086 105.157,143.086 105.262 C 143.086 105.366,142.750 105.515,142.338 105.592 C 141.927 105.669,141.591 105.818,141.591 105.923 C 141.591 106.028,141.159 106.179,140.630 106.258 C 140.101 106.337,139.669 106.487,139.669 106.591 C 139.669 106.695,139.188 106.781,138.601 106.781 C 138.014 106.781,137.533 106.877,137.533 106.994 C 137.533 107.112,137.149 107.208,136.679 107.208 C 136.209 107.208,135.825 107.112,135.825 106.994 C 135.825 106.877,135.439 106.781,134.968 106.781 C 134.496 106.781,133.944 106.690,133.740 106.579 C 133.536 106.468,133.009 106.319,132.568 106.249 C 132.128 106.178,131.767 106.036,131.767 105.934 C 131.767 105.831,131.479 105.683,131.127 105.606 C 130.774 105.529,130.486 105.387,130.486 105.292 C 130.486 105.196,130.246 105.058,129.952 104.984 C 129.658 104.911,129.418 104.756,129.418 104.641 C 129.418 104.526,129.313 104.431,129.185 104.431 C 129.057 104.431,123.397 98.874,116.607 92.082 C 109.817 85.290,103.956 79.476,103.582 79.162 C 103.209 78.847,102.953 78.590,103.012 78.590 C 103.072 78.590,99.692 75.152,95.501 70.948 C 88.030 63.456,87.463 62.851,87.209 62.093 C 87.140 61.887,87.006 61.719,86.911 61.719 C 86.817 61.719,86.676 61.431,86.599 61.078 C 86.522 60.726,86.381 60.438,86.286 60.438 C 86.191 60.438,86.045 59.981,85.962 59.423 C 85.878 58.865,85.718 58.352,85.606 58.283 C 85.344 58.120,85.333 53.153,85.595 52.984 C 85.703 52.914,85.860 52.400,85.942 51.842 C 86.024 51.284,86.182 50.828,86.292 50.828 C 86.402 50.828,86.492 50.642,86.492 50.416 C 86.492 50.189,86.636 49.860,86.813 49.683 C 86.989 49.507,87.133 49.260,87.133 49.134 C 87.133 49.008,87.229 48.905,87.347 48.905 C 87.464 48.905,87.560 48.758,87.560 48.578 C 87.560 48.236,128.400 7.302,129.581 6.460 C 129.952 6.196,130.355 5.980,130.477 5.980 C 130.599 5.980,130.699 5.894,130.699 5.790 C 130.699 5.686,131.036 5.537,131.447 5.460 C 131.858 5.383,132.194 5.228,132.194 5.116 C 132.194 5.004,132.427 4.912,132.710 4.912 C 132.994 4.912,133.267 4.792,133.316 4.645 C 133.381 4.447,134.228 4.378,136.572 4.378 C 138.917 4.378,139.763 4.447,139.829 4.645 C 139.878 4.792,140.145 4.912,140.422 4.912 C 140.699 4.912,140.978 4.997,141.042 5.101 C 141.107 5.205,141.497 5.354,141.909 5.431 C 142.321 5.509,142.659 5.662,142.659 5.772 C 142.659 5.882,142.899 6.032,143.193 6.106 C 143.486 6.179,143.727 6.325,143.727 6.430 C 143.727 6.535,143.832 6.620,143.961 6.620 C 144.090 6.620,148.660 11.089,154.115 16.551 C 159.571 22.013,164.188 26.482,164.376 26.482 C 164.814 26.482,167.432 23.861,167.432 23.422 C 167.432 22.766,146.976 2.563,146.312 2.563 C 146.182 2.563,146.076 2.468,146.076 2.353 C 146.076 2.238,145.836 2.083,145.542 2.010 C 145.248 1.936,145.008 1.791,145.008 1.688 C 145.008 1.585,144.624 1.439,144.154 1.363 C 143.684 1.288,143.300 1.143,143.300 1.041 C 143.300 0.938,143.163 0.854,142.997 0.854 C 142.831 0.854,142.662 0.766,142.623 0.658 C 142.420 0.098,135.270 -0.194,132.314 0.237 M255.846 0.250 C 255.083 0.358,254.426 0.539,254.387 0.651 C 254.348 0.763,254.083 0.854,253.800 0.854 C 253.516 0.854,253.284 0.943,253.284 1.051 C 253.284 1.159,252.995 1.311,252.643 1.388 C 252.290 1.466,252.002 1.607,252.002 1.702 C 252.002 1.798,251.749 1.939,251.439 2.017 C 251.129 2.095,250.530 2.418,250.106 2.734 C 249.171 3.434,229.365 23.210,229.365 23.444 C 229.365 23.655,232.204 26.482,232.416 26.482 C 232.503 26.482,236.802 22.277,241.970 17.138 C 252.156 7.009,252.564 6.620,252.994 6.620 C 253.153 6.620,253.284 6.526,253.284 6.411 C 253.284 6.296,253.524 6.141,253.817 6.067 C 254.111 5.994,254.351 5.855,254.351 5.760 C 254.351 5.665,254.640 5.523,254.992 5.446 C 255.344 5.368,255.633 5.217,255.633 5.108 C 255.633 5.000,255.865 4.912,256.149 4.912 C 256.433 4.912,256.705 4.792,256.754 4.645 C 256.881 4.263,263.353 4.262,263.481 4.645 C 263.530 4.792,263.749 4.912,263.967 4.912 C 264.185 4.912,264.416 4.997,264.480 5.101 C 264.545 5.205,264.935 5.354,265.347 5.431 C 265.760 5.509,266.097 5.657,266.097 5.761 C 266.097 5.866,266.309 6.018,266.568 6.100 C 266.827 6.182,267.170 6.381,267.330 6.542 C 267.491 6.702,267.753 6.834,267.913 6.834 C 268.073 6.834,268.265 7.026,268.340 7.261 C 268.414 7.496,268.550 7.688,268.642 7.688 C 268.781 7.688,307.710 46.540,308.542 47.509 C 308.689 47.680,308.809 47.910,308.809 48.019 C 308.809 48.129,308.930 48.267,309.076 48.325 C 309.223 48.384,309.535 48.802,309.768 49.256 C 310.002 49.709,310.244 50.128,310.306 50.187 C 310.457 50.330,310.953 52.047,311.093 52.910 C 311.155 53.292,311.291 53.604,311.395 53.604 C 311.500 53.604,311.586 54.517,311.586 55.633 C 311.586 56.843,311.500 57.662,311.372 57.662 C 311.255 57.662,311.159 57.998,311.159 58.409 C 311.159 58.820,311.071 59.156,310.964 59.156 C 310.857 59.156,310.704 59.541,310.625 60.011 C 310.545 60.481,310.400 60.865,310.303 60.865 C 310.205 60.865,310.061 61.153,309.984 61.506 C 309.907 61.858,309.755 62.146,309.647 62.146 C 309.539 62.146,309.450 62.278,309.450 62.440 C 309.450 63.009,269.085 103.627,268.258 103.889 C 268.021 103.965,267.771 104.204,267.702 104.421 C 267.633 104.638,267.340 104.875,267.051 104.948 C 266.761 105.021,266.524 105.167,266.524 105.273 C 266.524 105.379,266.236 105.529,265.884 105.606 C 265.531 105.683,265.243 105.826,265.243 105.923 C 265.243 106.020,264.762 106.166,264.175 106.247 C 263.588 106.327,263.107 106.481,263.107 106.587 C 263.107 106.693,262.675 106.781,262.146 106.781 C 261.618 106.781,261.185 106.877,261.185 106.994 C 261.185 107.112,260.807 107.208,260.344 107.208 C 259.881 107.208,259.443 107.112,259.370 106.994 C 259.297 106.877,258.817 106.781,258.302 106.781 C 257.787 106.781,257.307 106.684,257.234 106.567 C 257.162 106.450,256.892 106.350,256.634 106.346 C 256.377 106.342,255.782 106.153,255.312 105.926 C 254.842 105.699,254.338 105.510,254.191 105.506 C 254.044 105.502,253.924 105.414,253.924 105.309 C 253.924 105.204,253.684 105.058,253.390 104.984 C 253.097 104.911,252.856 104.756,252.856 104.641 C 252.856 104.526,252.765 104.431,252.654 104.431 C 252.543 104.431,248.031 100.011,242.629 94.608 C 237.226 89.204,232.672 84.784,232.508 84.784 C 232.192 84.784,229.365 87.603,229.365 87.919 C 229.365 88.022,229.533 88.267,229.738 88.463 C 230.243 88.945,230.511 89.216,231.563 90.308 C 232.057 90.820,232.584 91.349,232.735 91.482 C 232.886 91.615,233.283 92.000,233.617 92.337 C 233.952 92.674,234.337 93.059,234.474 93.192 C 234.610 93.324,235.126 93.853,235.621 94.365 C 236.115 94.878,236.642 95.407,236.793 95.540 C 237.027 95.747,237.909 96.620,238.522 97.252 C 238.760 97.497,242.270 101.007,242.552 101.282 C 243.255 101.966,244.026 102.746,244.236 102.983 C 244.369 103.134,244.898 103.661,245.410 104.155 C 245.923 104.649,246.464 105.178,246.611 105.330 C 247.859 106.615,249.204 107.849,249.358 107.852 C 249.462 107.854,249.773 108.095,250.051 108.388 C 250.329 108.681,250.785 108.978,251.066 109.048 C 251.346 109.118,251.575 109.262,251.575 109.366 C 251.575 109.471,251.695 109.560,251.842 109.564 C 251.989 109.568,252.493 109.757,252.963 109.984 C 253.433 110.211,253.986 110.400,254.191 110.404 C 254.397 110.408,254.565 110.507,254.565 110.625 C 254.565 110.742,254.786 110.838,255.056 110.838 C 255.326 110.838,255.667 110.958,255.814 111.105 C 256.009 111.300,257.182 111.372,260.164 111.372 C 263.240 111.372,264.268 111.306,264.335 111.105 C 264.384 110.958,264.753 110.838,265.154 110.838 C 265.555 110.838,265.884 110.750,265.884 110.642 C 265.884 110.534,266.178 110.380,266.539 110.301 C 266.899 110.222,267.452 110.023,267.767 109.858 C 268.082 109.694,268.460 109.559,268.607 109.558 C 268.753 109.557,268.873 109.472,268.873 109.368 C 268.873 109.264,269.042 109.123,269.247 109.054 C 269.807 108.866,270.348 108.470,271.257 107.581 C 271.708 107.141,272.140 106.781,272.218 106.781 C 272.372 106.781,311.359 67.704,312.226 66.680 C 312.930 65.850,313.279 65.325,313.432 64.869 C 313.501 64.664,313.635 64.495,313.729 64.495 C 313.824 64.495,313.964 64.207,314.042 63.855 C 314.119 63.502,314.262 63.214,314.360 63.214 C 314.458 63.214,314.603 62.830,314.682 62.360 C 314.762 61.890,314.914 61.506,315.021 61.506 C 315.129 61.506,315.216 61.273,315.216 60.989 C 315.216 60.706,315.336 60.433,315.483 60.384 C 315.686 60.317,315.750 59.182,315.750 55.679 C 315.750 52.271,315.680 50.993,315.483 50.796 C 315.336 50.649,315.216 50.308,315.216 50.037 C 315.216 49.767,315.121 49.546,315.005 49.546 C 314.889 49.546,314.733 49.162,314.658 48.692 C 314.582 48.222,314.448 47.838,314.358 47.838 C 314.268 47.838,314.134 47.596,314.060 47.301 C 313.928 46.775,313.677 46.408,312.707 45.323 C 312.443 45.027,312.226 44.698,312.226 44.590 C 312.226 44.303,271.497 3.631,271.209 3.631 C 271.074 3.631,270.775 3.390,270.544 3.097 C 270.313 2.803,269.987 2.563,269.819 2.563 C 269.651 2.563,269.514 2.468,269.514 2.353 C 269.514 2.238,269.274 2.083,268.980 2.010 C 268.687 1.936,268.446 1.791,268.446 1.688 C 268.446 1.585,268.062 1.439,267.592 1.363 C 267.122 1.288,266.738 1.143,266.738 1.041 C 266.738 0.938,266.594 0.854,266.418 0.854 C 266.241 0.854,266.097 0.775,266.097 0.678 C 266.097 0.106,258.956 -0.192,255.846 0.250 M169.120 27.905 C 168.309 28.688,167.645 29.500,167.645 29.710 C 167.645 29.928,171.486 33.930,176.615 39.056 C 181.548 43.987,185.585 48.124,185.585 48.250 C 185.585 48.376,185.674 48.478,185.784 48.478 C 185.893 48.478,186.050 48.695,186.133 48.959 C 186.215 49.223,186.347 49.487,186.425 49.546 C 186.654 49.718,187.293 51.182,187.293 51.536 C 187.293 51.714,187.413 51.900,187.560 51.949 C 187.759 52.015,187.827 52.925,187.827 55.526 C 187.827 58.127,187.759 59.037,187.560 59.103 C 187.413 59.152,187.293 59.338,187.293 59.516 C 187.293 59.869,186.654 61.334,186.425 61.506 C 186.347 61.564,186.209 61.853,186.118 62.146 C 186.027 62.440,185.725 62.892,185.448 63.151 C 185.171 63.409,184.944 63.674,184.944 63.740 C 184.944 63.909,183.880 65.107,183.150 65.758 C 182.810 66.062,182.425 66.434,182.296 66.584 C 182.167 66.735,181.785 67.132,181.448 67.467 C 181.111 67.801,180.727 68.187,180.594 68.323 C 180.461 68.460,179.933 68.976,179.420 69.470 C 178.907 69.964,178.379 70.492,178.245 70.642 C 178.033 70.882,177.358 71.564,176.589 72.316 C 176.455 72.447,175.540 73.360,174.555 74.344 C 173.570 75.329,172.657 76.242,172.526 76.373 C 172.395 76.505,171.484 77.418,170.501 78.402 C 169.519 79.387,168.595 80.308,168.447 80.449 C 167.364 81.486,167.375 81.531,169.149 83.312 C 170.464 84.632,170.696 84.786,171.000 84.536 C 172.208 83.540,188.358 67.189,188.465 66.853 C 188.537 66.626,188.774 66.383,188.991 66.314 C 189.209 66.245,189.446 65.952,189.518 65.662 C 189.591 65.373,189.745 65.136,189.860 65.136 C 189.975 65.136,190.069 64.999,190.069 64.831 C 190.069 64.663,190.190 64.395,190.336 64.236 C 190.765 63.769,191.072 63.143,191.234 62.406 C 191.317 62.028,191.468 61.719,191.571 61.719 C 191.673 61.719,191.822 61.140,191.902 60.433 C 191.982 59.726,192.131 59.095,192.233 59.032 C 192.477 58.881,192.474 52.169,192.230 52.018 C 192.126 51.953,191.975 51.371,191.894 50.724 C 191.813 50.076,191.658 49.546,191.549 49.546 C 191.440 49.546,191.351 49.393,191.351 49.205 C 191.351 48.837,190.718 47.373,190.483 47.197 C 190.405 47.138,190.273 46.874,190.191 46.610 C 190.108 46.345,189.951 46.129,189.841 46.129 C 189.732 46.129,189.642 45.982,189.642 45.802 C 189.642 45.622,189.498 45.420,189.322 45.352 C 189.146 45.285,189.002 45.139,189.002 45.030 C 189.002 44.715,171.017 26.482,170.707 26.482 C 170.645 26.482,169.930 27.122,169.120 27.905 M216.841 35.776 C 211.774 40.851,207.563 45.209,207.484 45.460 C 207.404 45.711,207.249 45.916,207.140 45.916 C 207.030 45.916,206.941 46.060,206.941 46.236 C 206.941 46.412,206.846 46.556,206.731 46.556 C 206.616 46.556,206.461 46.797,206.388 47.090 C 206.314 47.384,206.169 47.624,206.066 47.624 C 205.963 47.624,205.817 48.009,205.741 48.478 C 205.666 48.948,205.521 49.333,205.419 49.333 C 205.316 49.333,205.232 49.506,205.232 49.717 C 205.232 49.928,205.126 50.208,204.996 50.338 C 204.866 50.468,204.708 51.208,204.646 51.982 C 204.584 52.757,204.444 53.390,204.335 53.390 C 203.887 53.390,204.538 60.458,205.033 60.961 C 205.143 61.073,205.232 61.385,205.232 61.655 C 205.232 61.925,205.321 62.146,205.429 62.146 C 205.537 62.146,205.689 62.435,205.766 62.787 C 205.844 63.139,205.988 63.428,206.086 63.428 C 206.185 63.428,206.329 63.716,206.407 64.068 C 206.484 64.421,206.636 64.709,206.744 64.709 C 206.852 64.709,206.941 64.830,206.941 64.978 C 206.941 65.126,207.181 65.506,207.475 65.823 C 207.768 66.140,208.009 66.478,208.009 66.574 C 208.009 66.670,208.417 67.139,208.916 67.615 C 209.415 68.092,210.084 68.762,210.401 69.105 C 210.719 69.447,211.248 69.990,211.576 70.311 C 211.904 70.632,212.280 71.005,212.412 71.140 C 212.543 71.275,213.467 72.203,214.466 73.201 C 215.464 74.200,216.377 75.113,216.495 75.230 C 216.612 75.347,217.525 76.260,218.523 77.259 C 219.522 78.257,220.435 79.170,220.552 79.288 C 220.670 79.405,221.594 80.329,222.606 81.342 C 223.618 82.354,224.520 83.256,224.610 83.347 C 225.151 83.894,225.994 84.570,226.134 84.570 C 226.337 84.570,227.982 82.995,228.777 82.041 L 229.363 81.336 220.394 72.371 C 215.461 67.440,211.426 63.333,211.426 63.244 C 211.426 63.154,211.257 62.895,211.052 62.667 C 210.626 62.195,209.717 60.407,209.717 60.041 C 209.717 59.907,209.621 59.797,209.503 59.797 C 209.386 59.797,209.290 59.469,209.290 59.067 C 209.290 58.666,209.178 58.300,209.041 58.255 C 208.707 58.144,208.725 52.689,209.059 52.577 C 209.186 52.535,209.290 52.316,209.290 52.091 C 209.290 51.866,209.374 51.682,209.476 51.682 C 209.579 51.682,209.724 51.297,209.799 50.828 C 209.874 50.358,210.020 49.973,210.124 49.973 C 210.227 49.973,210.372 49.733,210.445 49.439 C 210.519 49.146,210.674 48.905,210.789 48.905 C 210.904 48.905,210.998 48.805,210.998 48.683 C 210.998 48.560,211.239 48.201,211.532 47.884 C 211.826 47.567,212.066 47.236,212.066 47.147 C 212.066 47.058,215.951 43.102,220.699 38.355 L 229.332 29.724 228.120 28.476 C 227.454 27.790,226.716 27.075,226.482 26.888 C 226.071 26.561,225.691 26.912,216.841 35.776 " stroke="none" fill="#ef4424" fill-rule="evenodd"></path><path id="path1" d="M194.661 0.147 C 193.710 0.271,191.778 0.889,191.778 1.070 C 191.778 1.156,191.393 1.288,190.924 1.363 C 190.454 1.439,190.069 1.593,190.069 1.707 C 190.069 1.821,189.829 1.974,189.536 2.048 C 189.242 2.122,189.002 2.268,189.002 2.372 C 189.002 2.477,188.864 2.563,188.697 2.563 C 188.529 2.563,188.203 2.803,187.972 3.097 C 187.741 3.390,187.448 3.631,187.321 3.631 C 186.906 3.631,167.645 23.035,167.645 23.453 C 167.645 23.929,164.766 26.768,164.406 26.647 C 164.096 26.544,146.387 44.205,146.196 44.807 C 146.121 45.043,145.919 45.289,145.747 45.355 C 145.576 45.421,145.435 45.622,145.435 45.802 C 145.435 45.982,145.353 46.129,145.252 46.129 C 145.007 46.129,144.021 48.050,143.838 48.883 C 143.758 49.248,143.621 49.546,143.534 49.546 C 143.446 49.546,143.243 50.147,143.082 50.881 C 142.737 52.452,142.541 58.943,142.838 58.943 C 142.948 58.943,143.029 59.063,143.018 59.210 C 142.974 59.762,143.355 61.506,143.519 61.506 C 143.612 61.506,143.754 61.890,143.833 62.360 C 143.913 62.830,144.058 63.214,144.156 63.214 C 144.253 63.214,144.397 63.502,144.474 63.855 C 144.552 64.207,144.703 64.495,144.811 64.495 C 144.920 64.495,145.008 64.640,145.008 64.816 C 145.008 64.992,145.098 65.136,145.207 65.136 C 145.317 65.136,145.472 65.343,145.552 65.595 C 145.632 65.848,146.071 66.409,146.527 66.843 C 146.984 67.278,147.357 67.701,147.357 67.785 C 147.357 68.119,164.140 84.711,164.390 84.625 C 164.767 84.497,167.645 87.327,167.645 87.825 C 167.645 88.204,185.962 106.781,186.336 106.781 C 186.420 106.781,186.847 107.141,187.284 107.581 C 188.157 108.461,188.699 108.863,189.269 109.054 C 189.474 109.123,189.642 109.254,189.642 109.344 C 189.642 109.435,189.979 109.572,190.390 109.650 C 190.801 109.727,191.137 109.882,191.137 109.994 C 191.137 110.106,191.305 110.198,191.511 110.199 C 191.716 110.200,192.160 110.344,192.496 110.519 C 192.833 110.695,193.329 110.838,193.600 110.838 C 193.870 110.838,194.132 110.958,194.180 111.105 C 194.248 111.306,195.276 111.372,198.352 111.372 C 201.333 111.372,202.507 111.300,202.702 111.105 C 202.848 110.958,203.190 110.838,203.460 110.838 C 203.730 110.838,203.951 110.751,203.951 110.643 C 203.951 110.536,204.335 110.384,204.805 110.304 C 205.275 110.225,205.659 110.072,205.659 109.965 C 205.659 109.858,205.845 109.770,206.071 109.770 C 206.298 109.770,206.612 109.650,206.769 109.503 C 206.926 109.357,207.407 109.056,207.839 108.836 C 208.271 108.616,208.675 108.303,208.737 108.142 C 208.799 107.980,208.975 107.848,209.128 107.848 C 209.281 107.848,209.644 107.607,209.935 107.312 C 210.226 107.017,210.588 106.657,210.738 106.511 C 210.889 106.366,211.286 105.971,211.620 105.634 C 211.955 105.297,212.325 104.925,212.442 104.807 C 212.719 104.530,214.570 102.680,214.847 102.403 C 215.124 102.126,216.296 100.954,216.500 100.750 C 216.705 100.544,218.635 98.614,218.877 98.373 C 219.118 98.132,220.289 96.961,220.530 96.720 C 220.771 96.479,222.566 94.684,222.879 94.371 C 223.191 94.059,224.331 92.919,224.643 92.607 C 224.956 92.293,226.751 90.498,226.992 90.258 C 227.094 90.155,227.478 89.788,227.844 89.440 C 228.211 89.093,228.510 88.726,228.510 88.626 C 228.510 88.525,228.707 88.381,228.946 88.305 C 229.235 88.213,229.343 88.043,229.267 87.804 C 229.133 87.379,231.740 84.702,232.512 84.472 C 232.774 84.394,233.267 84.036,233.607 83.677 C 233.947 83.318,234.322 82.928,234.439 82.811 C 234.716 82.533,236.511 80.739,236.788 80.462 C 237.065 80.185,238.221 79.029,238.497 78.753 C 238.774 78.476,240.569 76.681,240.846 76.404 C 241.122 76.128,242.278 74.972,242.554 74.695 C 242.831 74.418,244.626 72.623,244.904 72.346 C 245.180 72.070,246.336 70.914,246.612 70.638 C 246.729 70.520,247.245 70.006,247.759 69.495 C 248.272 68.984,248.811 68.443,248.956 68.293 C 249.101 68.142,249.509 67.731,249.863 67.379 C 250.217 67.026,250.507 66.641,250.507 66.522 C 250.507 66.403,250.747 66.125,251.041 65.904 C 251.335 65.684,251.575 65.325,251.575 65.106 C 251.575 64.888,251.663 64.709,251.772 64.709 C 251.880 64.709,252.032 64.421,252.109 64.068 C 252.186 63.716,252.330 63.428,252.429 63.428 C 252.528 63.428,252.672 63.139,252.750 62.787 C 252.827 62.435,252.979 62.146,253.087 62.146 C 253.195 62.146,253.284 61.906,253.284 61.612 C 253.284 61.319,253.374 61.078,253.484 61.078 C 253.594 61.078,253.751 60.406,253.832 59.584 C 253.913 58.761,254.063 58.089,254.165 58.089 C 254.268 58.089,254.351 57.032,254.351 55.739 C 254.351 54.447,254.269 53.390,254.169 53.390 C 254.068 53.390,253.928 52.695,253.857 51.845 C 253.785 50.995,253.627 50.266,253.505 50.225 C 253.383 50.185,253.284 49.967,253.284 49.742 C 253.284 49.517,253.200 49.333,253.097 49.333 C 252.995 49.333,252.850 48.948,252.774 48.478 C 252.699 48.009,252.543 47.624,252.427 47.624 C 252.311 47.624,252.216 47.487,252.216 47.319 C 252.216 47.151,252.084 46.882,251.924 46.722 C 251.763 46.561,251.564 46.218,251.482 45.959 C 251.400 45.700,251.243 45.489,251.133 45.489 C 251.024 45.489,250.934 45.386,250.934 45.260 C 250.934 44.932,232.436 26.482,232.107 26.482 C 231.741 26.482,229.365 24.117,229.365 23.753 C 229.365 22.901,207.775 1.922,206.899 1.922 C 206.687 1.922,206.514 1.834,206.514 1.725 C 206.514 1.617,206.225 1.466,205.873 1.388 C 205.521 1.311,205.232 1.159,205.232 1.051 C 205.232 0.943,205.000 0.854,204.716 0.854 C 204.432 0.854,204.168 0.764,204.129 0.653 C 203.951 0.150,197.348 -0.202,194.661 0.147 M201.777 4.690 C 201.818 4.812,202.083 4.912,202.367 4.912 C 202.651 4.912,202.883 5.000,202.883 5.108 C 202.883 5.217,203.171 5.368,203.524 5.446 C 203.876 5.523,204.164 5.663,204.164 5.756 C 204.164 5.850,204.460 5.985,204.822 6.058 C 205.189 6.131,205.771 6.519,206.142 6.939 C 206.507 7.351,206.889 7.688,206.991 7.688 C 207.093 7.688,211.404 11.917,216.570 17.085 C 221.737 22.253,226.066 26.482,226.190 26.482 C 226.521 26.482,229.365 29.279,229.365 29.604 C 229.365 29.756,233.209 33.724,237.907 38.422 C 242.605 43.121,246.450 47.047,246.450 47.149 C 246.450 47.250,246.690 47.542,246.983 47.798 C 247.277 48.053,247.517 48.407,247.517 48.584 C 247.517 48.761,247.612 48.905,247.727 48.905 C 247.842 48.905,247.997 49.146,248.070 49.439 C 248.144 49.733,248.270 49.973,248.351 49.973 C 248.431 49.973,248.681 50.526,248.906 51.201 C 249.132 51.877,249.406 52.491,249.515 52.567 C 249.817 52.777,249.783 58.044,249.477 58.350 C 249.339 58.488,249.226 58.870,249.226 59.199 C 249.226 59.528,249.137 59.797,249.029 59.797 C 248.921 59.797,248.769 60.085,248.692 60.438 C 248.615 60.790,248.470 61.078,248.372 61.078 C 248.273 61.078,248.129 61.367,248.051 61.719 C 247.974 62.072,247.829 62.360,247.728 62.360 C 247.628 62.360,247.482 62.561,247.404 62.806 C 247.327 63.052,243.288 67.226,238.429 72.082 C 233.163 77.346,229.474 81.198,229.296 81.620 C 228.945 82.449,226.562 84.784,226.067 84.784 C 225.880 84.784,221.308 89.204,215.908 94.608 C 210.508 100.011,205.992 104.431,205.874 104.431 C 205.756 104.431,205.659 104.521,205.659 104.631 C 205.659 104.740,205.443 104.897,205.179 104.980 C 204.915 105.062,204.650 105.189,204.591 105.261 C 204.334 105.578,202.991 106.152,202.220 106.275 C 201.757 106.349,201.327 106.493,201.264 106.595 C 201.201 106.697,200.723 106.781,200.201 106.781 C 199.679 106.781,199.253 106.877,199.253 106.994 C 199.253 107.112,198.868 107.208,198.398 107.208 C 197.928 107.208,197.544 107.112,197.544 106.994 C 197.544 106.877,197.064 106.781,196.476 106.781 C 195.889 106.781,195.408 106.695,195.408 106.591 C 195.408 106.487,194.976 106.337,194.447 106.258 C 193.919 106.179,193.486 106.034,193.486 105.937 C 193.486 105.840,193.159 105.699,192.760 105.624 C 192.360 105.549,191.978 105.346,191.912 105.173 C 191.846 105.000,191.688 104.859,191.561 104.859 C 191.435 104.859,191.091 104.618,190.797 104.325 C 190.504 104.031,190.177 103.791,190.072 103.791 C 189.966 103.791,185.605 99.514,180.380 94.287 C 175.155 89.060,170.755 84.784,170.603 84.784 C 170.236 84.784,167.432 81.993,167.432 81.628 C 167.432 81.472,163.540 77.449,158.783 72.687 C 154.026 67.926,150.133 63.938,150.133 63.826 C 150.133 63.713,149.893 63.398,149.600 63.126 C 149.306 62.854,149.066 62.522,149.066 62.389 C 149.066 62.255,148.977 62.146,148.869 62.146 C 148.761 62.146,148.609 61.858,148.532 61.506 C 148.454 61.153,148.313 60.865,148.218 60.865 C 148.123 60.865,147.978 60.505,147.895 60.065 C 147.813 59.624,147.634 59.195,147.498 59.111 C 147.146 58.894,147.155 52.716,147.508 52.291 C 147.650 52.121,147.830 51.577,147.909 51.084 C 147.988 50.591,148.126 50.187,148.216 50.187 C 148.305 50.187,148.439 49.947,148.513 49.653 C 148.586 49.359,148.741 49.119,148.856 49.119 C 148.971 49.119,149.066 48.975,149.066 48.799 C 149.066 48.623,149.165 48.478,149.286 48.478 C 149.407 48.478,149.570 48.310,149.649 48.105 C 149.830 47.631,150.085 47.313,150.862 46.596 C 151.204 46.281,151.733 45.744,152.037 45.403 C 152.341 45.063,152.713 44.678,152.865 44.549 C 153.016 44.420,153.400 44.045,153.719 43.717 C 154.037 43.389,154.578 42.860,154.920 42.542 C 155.262 42.225,155.790 41.686,156.094 41.346 C 156.398 41.005,156.770 40.621,156.921 40.491 C 157.274 40.188,158.287 39.175,158.591 38.822 C 158.720 38.671,159.104 38.299,159.445 37.995 C 159.785 37.691,160.324 37.163,160.642 36.820 C 160.959 36.478,161.488 35.938,161.816 35.620 C 162.145 35.301,162.519 34.917,162.648 34.765 C 162.778 34.614,163.162 34.241,163.503 33.937 C 163.843 33.633,164.382 33.105,164.699 32.763 C 165.017 32.421,165.569 31.871,165.927 31.540 C 166.285 31.210,166.578 30.856,166.578 30.754 C 166.578 30.652,166.770 30.507,167.005 30.432 C 167.268 30.349,167.432 30.109,167.432 29.809 C 167.432 29.212,170.070 26.482,170.646 26.482 C 170.860 26.482,171.306 26.189,171.636 25.831 C 171.967 25.473,172.517 24.921,172.859 24.603 C 173.201 24.286,173.730 23.747,174.034 23.406 C 174.338 23.066,174.710 22.682,174.861 22.552 C 175.013 22.423,175.397 22.048,175.716 21.720 C 176.034 21.392,176.575 20.863,176.917 20.545 C 177.259 20.228,177.787 19.689,178.091 19.349 C 178.395 19.008,178.767 18.624,178.918 18.495 C 179.271 18.191,180.284 17.178,180.587 16.825 C 180.717 16.674,181.101 16.302,181.442 15.998 C 181.782 15.694,182.321 15.166,182.638 14.824 C 182.956 14.482,183.485 13.941,183.813 13.623 C 184.141 13.304,184.516 12.920,184.645 12.768 C 184.774 12.617,185.159 12.245,185.499 11.941 C 185.840 11.637,186.377 11.108,186.692 10.766 C 187.008 10.424,187.393 10.038,187.547 9.909 C 187.701 9.780,188.087 9.395,188.405 9.055 C 188.722 8.714,189.275 8.165,189.633 7.835 C 189.990 7.505,190.283 7.144,190.283 7.034 C 190.283 6.924,190.420 6.834,190.588 6.834 C 190.756 6.834,191.025 6.702,191.185 6.542 C 191.346 6.381,191.689 6.182,191.948 6.100 C 192.207 6.018,192.419 5.869,192.419 5.769 C 192.419 5.669,192.728 5.519,193.106 5.436 C 193.484 5.353,193.940 5.212,194.120 5.123 C 194.892 4.742,195.550 4.496,196.049 4.401 C 197.000 4.220,201.699 4.457,201.777 4.690 " stroke="none" fill="#04abeb" fill-rule="evenodd"></path><path id="path2" d="M168.500 82.968 C 168.898 83.380,169.272 83.716,169.331 83.716 C 169.390 83.716,169.112 83.380,168.713 82.968 C 168.315 82.557,167.941 82.221,167.882 82.221 C 167.823 82.221,168.101 82.557,168.500 82.968 M166.078 86.065 C 166.802 86.829,167.439 87.645,167.495 87.880 C 167.595 88.302,167.596 88.302,167.621 87.874 C 167.636 87.599,167.119 86.936,166.204 86.059 L 164.762 84.677 166.078 86.065 M84.891 200.244 C 83.734 200.723,81.794 202.148,81.794 202.519 C 81.794 202.618,81.650 202.844,81.474 203.020 C 81.297 203.197,81.153 203.574,81.153 203.859 C 81.153 204.145,81.057 204.378,80.940 204.378 C 80.672 204.378,80.649 209.003,80.916 209.169 C 81.020 209.233,81.169 209.535,81.245 209.840 C 81.420 210.536,82.283 211.601,83.318 212.397 C 84.510 213.313,87.523 213.720,90.414 213.355 C 92.999 213.029,92.922 213.158,92.851 209.246 L 92.792 205.980 90.176 205.920 L 87.560 205.860 87.560 206.721 L 87.560 207.581 89.063 207.581 L 90.566 207.581 90.505 209.557 L 90.443 211.532 88.335 211.594 C 85.447 211.678,84.305 211.103,83.188 209.001 C 82.625 207.943,82.391 205.232,82.862 205.232 C 82.979 205.232,83.075 205.036,83.075 204.796 C 83.075 204.556,83.173 204.244,83.293 204.102 C 84.109 203.134,84.357 202.799,84.357 202.660 C 84.357 202.573,84.620 202.436,84.942 202.355 C 85.264 202.275,85.596 202.096,85.681 201.959 C 85.919 201.574,90.722 201.616,90.962 202.004 C 91.083 202.201,91.332 202.253,91.702 202.160 C 92.397 201.986,92.538 200.488,91.885 200.203 C 91.056 199.842,85.788 199.873,84.891 200.244 M97.597 206.593 L 97.597 213.348 98.536 213.348 C 99.723 213.348,99.733 213.320,99.733 209.991 L 99.733 207.310 100.722 207.445 C 101.707 207.580,102.722 208.381,102.723 209.023 C 102.723 209.170,102.819 209.290,102.936 209.290 C 103.054 209.290,103.153 209.410,103.157 209.557 C 103.161 209.704,103.350 210.208,103.577 210.678 C 103.804 211.148,103.993 211.652,103.997 211.799 C 104.001 211.946,104.079 212.066,104.171 212.066 C 104.263 212.066,104.447 212.355,104.580 212.707 C 104.806 213.306,104.894 213.348,105.934 213.348 L 107.048 213.348 106.909 212.653 C 106.833 212.272,106.677 211.927,106.562 211.888 C 106.447 211.849,106.353 211.713,106.353 211.585 C 106.353 211.249,105.027 208.556,104.820 208.471 C 104.724 208.432,104.644 208.288,104.644 208.151 C 104.643 208.014,104.500 207.629,104.326 207.296 C 104.018 206.705,104.032 206.671,104.862 205.926 C 105.393 205.449,105.713 204.975,105.713 204.663 C 105.713 204.389,105.809 204.164,105.926 204.164 C 106.044 204.164,106.140 203.930,106.140 203.643 C 106.140 203.356,106.044 203.062,105.926 202.990 C 105.809 202.917,105.713 202.591,105.713 202.265 C 105.713 200.817,104.025 200.075,100.427 199.942 L 97.597 199.838 97.597 206.593 M113.443 200.320 C 111.816 201.058,110.198 203.125,110.198 204.464 C 110.198 204.769,110.101 205.019,109.984 205.019 C 109.861 205.019,109.770 205.695,109.770 206.620 C 109.770 207.546,109.861 208.222,109.984 208.222 C 110.101 208.222,110.198 208.507,110.198 208.856 C 110.198 209.538,110.807 210.998,111.091 210.998 C 111.187 210.998,111.265 211.127,111.265 211.283 C 111.265 211.660,112.253 212.523,113.187 212.962 C 114.664 213.657,119.536 213.629,119.771 212.924 C 119.811 212.805,119.931 212.707,120.038 212.707 C 120.217 212.707,120.949 212.143,121.651 211.464 C 121.812 211.308,121.943 211.044,121.943 210.876 C 121.943 210.709,122.035 210.571,122.147 210.571 C 122.259 210.571,122.409 210.211,122.479 209.770 C 122.550 209.330,122.698 208.803,122.809 208.599 C 123.063 208.133,123.077 205.019,122.825 205.019 C 122.723 205.019,122.589 204.565,122.526 204.011 C 122.464 203.457,122.307 202.969,122.178 202.926 C 122.049 202.883,121.943 202.733,121.943 202.593 C 121.943 200.644,116.144 199.094,113.443 200.320 M126.776 200.374 C 126.523 201.321,126.651 208.724,126.939 209.717 C 127.436 211.435,127.738 212.046,128.155 212.179 C 128.380 212.250,128.564 212.398,128.564 212.508 C 128.564 212.617,128.700 212.707,128.866 212.707 C 129.033 212.707,129.203 212.809,129.244 212.933 C 129.386 213.358,132.245 213.651,133.774 213.398 C 135.934 213.040,137.533 211.667,137.533 210.170 C 137.533 209.850,137.631 209.491,137.751 209.371 C 137.890 209.233,137.948 207.482,137.911 204.577 L 137.854 200.000 136.786 200.000 L 135.718 200.000 135.604 204.912 C 135.542 207.613,135.411 210.039,135.313 210.302 C 134.555 212.345,129.647 212.042,129.300 209.931 C 129.233 209.519,129.087 208.962,128.977 208.693 C 128.867 208.423,128.777 206.333,128.777 204.048 L 128.777 199.893 127.841 199.893 C 127.051 199.893,126.885 199.968,126.776 200.374 M142.392 200.012 C 142.304 200.103,142.232 203.141,142.232 206.763 L 142.232 213.348 143.300 213.348 L 144.367 213.348 144.367 210.678 L 144.367 208.009 145.862 208.009 C 146.716 208.009,147.357 207.917,147.357 207.795 C 147.357 207.678,147.624 207.581,147.950 207.581 C 148.866 207.581,150.060 206.658,150.517 205.596 C 150.798 204.943,150.874 202.242,150.611 202.242 C 150.522 202.242,150.353 202.029,150.238 201.768 C 149.649 200.442,143.339 199.030,142.392 200.012 M164.586 200.309 C 163.628 200.756,162.301 201.960,161.961 202.690 C 161.830 202.973,161.590 203.482,161.427 203.823 C 161.036 204.645,161.013 209.150,161.399 209.536 C 161.546 209.682,161.666 209.969,161.666 210.172 C 161.666 210.375,161.786 210.672,161.933 210.832 C 162.080 210.992,162.302 211.305,162.428 211.527 C 162.553 211.749,162.841 212.033,163.068 212.159 C 163.295 212.284,163.529 212.445,163.588 212.517 C 164.526 213.662,169.974 213.833,171.311 212.758 C 175.412 209.465,174.930 202.289,170.476 200.319 C 169.182 199.746,165.804 199.741,164.586 200.309 M178.044 200.031 C 177.963 200.112,177.896 203.141,177.896 206.763 L 177.896 213.348 178.857 213.348 L 179.818 213.348 179.818 210.358 L 179.818 207.368 182.381 207.368 L 184.944 207.368 184.944 206.514 L 184.944 205.659 182.381 205.659 L 179.818 205.659 179.818 203.737 L 179.818 201.815 182.484 201.815 C 185.368 201.815,185.587 201.706,185.334 200.391 C 185.256 199.987,178.424 199.650,178.044 200.031 M200.481 200.046 C 200.158 200.095,199.893 200.225,199.893 200.335 C 199.893 200.444,199.734 200.534,199.540 200.534 C 199.007 200.534,197.117 202.003,197.117 202.418 C 197.117 202.531,196.973 202.679,196.797 202.747 C 196.620 202.814,196.476 203.002,196.476 203.164 C 196.476 203.326,196.320 203.771,196.129 204.153 C 195.431 205.554,195.872 209.670,196.834 210.722 C 196.971 210.873,197.264 211.225,197.484 211.505 C 199.161 213.637,206.941 214.457,206.941 212.502 C 206.941 211.614,206.734 211.554,203.634 211.542 C 201.247 211.534,200.768 211.474,200.243 211.119 C 199.131 210.365,198.361 209.442,198.244 208.720 C 198.181 208.329,198.045 208.009,197.943 208.009 C 197.841 208.009,197.758 207.432,197.758 206.727 C 197.758 206.022,197.842 205.446,197.944 205.446 C 198.047 205.446,198.194 205.135,198.269 204.755 C 198.411 204.047,199.980 202.242,200.454 202.242 C 200.596 202.242,200.752 202.122,200.801 201.975 C 200.931 201.585,205.467 201.604,205.941 201.997 C 206.452 202.421,206.989 201.818,206.901 200.918 C 206.811 199.999,203.637 199.568,200.481 200.046 M215.270 200.032 C 214.097 200.419,212.066 202.053,212.066 202.611 C 212.066 202.761,211.971 202.883,211.855 202.883 C 211.739 202.883,211.583 203.267,211.508 203.737 C 211.432 204.207,211.287 204.592,211.185 204.592 C 211.082 204.592,210.998 205.505,210.998 206.620 C 210.998 207.831,211.085 208.649,211.212 208.649 C 211.329 208.649,211.426 208.899,211.426 209.204 C 211.426 210.690,213.435 212.952,215.056 213.290 C 217.032 213.702,220.431 213.406,221.170 212.758 C 221.403 212.554,221.774 212.284,221.994 212.159 C 222.215 212.033,222.498 211.745,222.623 211.518 C 222.749 211.291,222.919 211.054,223.003 210.991 C 223.299 210.768,223.812 209.295,223.812 208.669 C 223.812 208.319,223.908 207.974,224.026 207.902 C 224.143 207.829,224.239 207.253,224.239 206.620 C 224.239 205.988,224.143 205.412,224.026 205.339 C 223.908 205.266,223.812 204.915,223.812 204.558 C 223.812 201.479,218.854 198.852,215.270 200.032 M227.974 200.374 C 227.910 200.638,227.884 203.641,227.917 207.048 L 227.977 213.241 229.094 213.305 L 230.211 213.370 230.274 208.500 C 230.312 205.557,230.408 203.821,230.516 204.111 C 230.615 204.375,230.781 204.592,230.884 204.592 C 230.988 204.592,231.073 204.697,231.073 204.826 C 231.073 205.049,231.255 205.502,232.134 207.475 C 232.343 207.944,232.646 208.641,232.807 209.023 C 232.968 209.405,233.172 209.717,233.261 209.717 C 233.350 209.717,233.422 209.858,233.422 210.031 C 233.422 210.203,233.604 210.708,233.825 211.152 C 234.046 211.596,234.358 212.272,234.518 212.653 C 235.063 213.959,236.417 213.685,237.154 212.120 C 237.473 211.444,237.965 210.426,238.247 209.857 C 238.530 209.289,238.761 208.696,238.761 208.541 C 238.761 208.385,238.833 208.226,238.922 208.187 C 239.113 208.101,240.043 205.870,240.043 205.495 C 240.043 205.351,240.131 205.232,240.239 205.232 C 240.347 205.232,240.499 204.944,240.577 204.592 C 240.937 202.952,241.111 204.273,241.111 208.649 L 241.111 213.348 242.181 213.348 L 243.252 213.348 243.196 206.674 L 243.139 200.000 241.865 200.000 L 240.591 200.000 240.157 201.068 C 239.918 201.655,239.650 202.168,239.562 202.207 C 239.474 202.246,239.402 202.384,239.402 202.514 C 239.402 202.644,239.123 203.333,238.782 204.045 C 237.863 205.960,237.480 206.870,237.480 207.133 C 237.480 207.262,237.384 207.368,237.266 207.368 C 237.149 207.368,237.053 207.458,237.053 207.569 C 237.053 208.144,235.813 210.385,235.644 210.115 C 235.206 209.416,234.704 208.323,234.704 208.070 C 234.704 207.919,234.608 207.795,234.490 207.795 C 234.373 207.795,234.277 207.678,234.277 207.536 C 234.277 207.394,233.884 206.457,233.403 205.454 C 232.507 203.583,231.988 202.446,231.475 201.228 C 231.314 200.846,231.110 200.534,231.021 200.534 C 230.932 200.534,230.860 200.390,230.860 200.214 C 230.860 199.616,228.122 199.768,227.974 200.374 M247.944 206.620 L 247.944 213.348 248.905 213.348 L 249.867 213.348 249.867 210.678 L 249.867 208.009 251.361 208.009 C 252.216 208.009,252.856 207.917,252.856 207.795 C 252.856 207.678,253.121 207.581,253.444 207.580 C 255.069 207.576,256.273 206.054,256.273 204.004 C 256.273 200.835,254.903 199.936,250.027 199.906 L 247.944 199.893 247.944 206.620 M262.635 201.005 C 261.848 202.560,261.185 204.096,261.185 204.366 C 261.185 204.490,261.089 204.592,260.972 204.592 C 260.854 204.592,260.758 204.681,260.758 204.790 C 260.758 204.899,260.470 205.612,260.117 206.373 C 259.765 207.134,259.477 207.902,259.477 208.079 C 259.477 208.255,259.397 208.432,259.300 208.471 C 259.081 208.559,258.066 210.695,257.868 211.486 C 257.788 211.805,257.636 212.066,257.532 212.066 C 257.427 212.066,257.341 212.360,257.341 212.719 C 257.341 213.363,257.353 213.370,258.351 213.306 L 259.361 213.241 259.900 211.853 C 260.196 211.089,260.516 210.344,260.611 210.198 C 260.736 210.004,261.651 209.931,263.948 209.931 C 267.297 209.931,267.386 209.956,267.702 210.998 C 267.790 211.292,267.928 211.580,268.008 211.639 C 268.087 211.698,268.246 212.082,268.360 212.493 C 268.559 213.213,268.609 213.243,269.681 213.305 C 270.933 213.378,271.040 213.205,270.491 211.992 C 270.209 211.371,269.822 210.477,269.065 208.703 C 268.902 208.321,268.697 208.009,268.608 208.009 C 268.519 208.009,268.443 207.840,268.439 207.635 C 268.435 207.429,268.246 206.877,268.019 206.407 C 267.792 205.937,267.603 205.432,267.599 205.286 C 267.595 205.139,267.496 205.019,267.379 205.019 C 267.261 205.019,267.165 204.832,267.165 204.604 C 267.165 204.376,267.076 204.135,266.968 204.068 C 266.859 204.001,266.708 203.659,266.631 203.308 C 266.553 202.957,266.402 202.670,266.294 202.670 C 266.186 202.670,266.096 202.501,266.095 202.296 C 266.088 201.141,265.159 200.002,264.170 199.937 L 263.208 199.874 262.635 201.005 M273.999 206.620 L 273.999 213.348 274.960 213.348 L 275.921 213.348 275.921 208.386 L 275.921 203.425 276.493 204.275 C 276.808 204.743,277.144 205.158,277.241 205.197 C 277.337 205.236,277.416 205.372,277.416 205.498 C 277.416 205.729,278.668 207.808,278.928 208.009 C 279.005 208.067,279.134 208.332,279.217 208.596 C 279.299 208.860,279.456 209.076,279.566 209.076 C 279.675 209.076,279.765 209.216,279.765 209.386 C 279.765 209.556,279.885 209.773,280.032 209.867 C 280.179 209.961,280.482 210.398,280.706 210.838 C 280.930 211.279,281.184 211.639,281.270 211.639 C 281.357 211.639,281.488 211.879,281.561 212.173 C 281.635 212.467,281.790 212.707,281.905 212.707 C 282.020 212.707,282.114 212.851,282.114 213.027 C 282.114 213.276,282.399 213.348,283.396 213.348 L 284.677 213.348 284.677 206.620 L 284.677 199.893 283.720 199.893 L 282.763 199.893 282.705 205.072 C 282.667 208.549,282.581 210.111,282.445 209.824 C 282.193 209.296,281.014 207.513,280.819 207.368 C 280.741 207.309,280.609 207.045,280.527 206.781 C 280.444 206.516,280.298 206.300,280.201 206.300 C 280.104 206.300,279.965 206.060,279.891 205.766 C 279.817 205.473,279.663 205.232,279.547 205.232 C 279.432 205.232,279.338 205.128,279.338 205.000 C 279.338 204.786,278.116 202.911,277.818 202.670 C 277.746 202.611,277.620 202.347,277.537 202.082 C 277.455 201.818,277.298 201.602,277.188 201.602 C 277.078 201.602,276.989 201.458,276.989 201.281 C 276.989 201.105,276.895 200.961,276.779 200.961 C 276.664 200.961,276.510 200.721,276.436 200.427 C 276.314 199.940,276.200 199.893,275.150 199.893 L 273.999 199.893 273.999 206.620 M289.162 206.632 L 289.162 213.371 290.136 213.306 L 291.111 213.241 291.099 206.727 C 291.093 203.145,291.087 200.141,291.086 200.053 C 291.085 199.965,290.651 199.893,290.123 199.893 L 289.162 199.893 289.162 206.632 M295.569 206.620 L 295.569 213.348 299.532 213.348 L 303.496 213.348 303.430 212.547 L 303.364 211.746 300.534 211.686 L 297.704 211.627 297.704 209.497 L 297.704 207.368 300.374 207.368 L 303.043 207.368 303.043 206.514 L 303.043 205.659 300.374 205.659 L 297.704 205.659 297.704 203.737 L 297.704 201.815 300.374 201.815 L 303.043 201.815 303.043 200.854 L 303.043 199.893 299.306 199.893 L 295.569 199.893 295.569 206.620 M308.753 200.482 C 306.428 201.820,306.405 204.440,308.703 206.212 C 309.172 206.574,310.013 207.054,310.570 207.279 C 311.128 207.504,311.584 207.760,311.585 207.848 C 311.585 207.936,311.706 208.012,311.853 208.015 C 312.214 208.024,313.255 208.960,313.305 209.320 C 313.543 211.051,312.549 211.732,309.980 211.597 C 308.979 211.545,308.046 211.388,307.908 211.250 C 307.467 210.810,307.212 210.975,306.928 211.884 C 306.570 213.032,306.688 213.127,308.780 213.395 C 312.279 213.841,314.453 213.031,315.379 210.935 C 315.812 209.955,315.527 208.016,314.949 208.010 C 314.861 208.009,314.789 207.868,314.789 207.696 C 314.789 207.524,314.604 207.284,314.379 207.163 C 314.153 207.042,313.841 206.817,313.685 206.663 C 313.380 206.362,310.707 205.019,310.413 205.019 C 309.943 205.019,309.087 203.709,309.189 203.146 C 309.409 201.931,309.945 201.704,312.490 201.749 L 314.789 201.789 314.789 200.973 C 314.789 199.967,314.601 199.899,311.799 199.898 C 309.976 199.897,309.667 199.956,308.753 200.482 M118.289 201.983 C 118.361 202.094,118.636 202.252,118.900 202.335 C 119.164 202.417,119.381 202.567,119.381 202.669 C 119.381 202.770,119.501 202.984,119.648 203.145 C 120.131 203.673,120.662 204.831,120.662 205.356 C 120.662 205.640,120.758 205.873,120.876 205.873 C 120.993 205.873,121.089 206.204,121.089 206.608 C 121.089 207.012,120.993 207.402,120.876 207.475 C 120.758 207.547,120.662 207.790,120.662 208.014 C 120.662 210.016,118.865 211.532,116.493 211.532 C 114.517 211.532,114.432 211.503,113.371 210.464 C 112.234 209.351,111.441 205.157,112.267 204.627 C 112.389 204.549,112.561 204.256,112.648 203.976 C 112.851 203.327,113.812 202.242,114.184 202.242 C 114.340 202.242,114.469 202.153,114.469 202.043 C 114.469 201.607,118.012 201.551,118.289 201.983 M169.437 202.042 C 170.424 202.537,171.427 203.798,171.626 204.793 C 171.699 205.157,171.842 205.506,171.944 205.570 C 172.186 205.719,172.187 207.521,171.946 207.670 C 171.844 207.733,171.708 208.175,171.644 208.653 C 171.555 209.321,171.296 209.754,170.522 210.527 L 169.517 211.532 167.540 211.532 L 165.564 211.532 164.708 210.651 C 163.476 209.381,162.838 207.225,163.233 205.659 C 163.307 205.366,163.424 204.861,163.494 204.538 C 163.564 204.215,163.710 203.951,163.818 203.951 C 163.926 203.951,164.015 203.821,164.015 203.663 C 164.015 202.121,167.511 201.076,169.437 202.042 M219.590 202.020 C 219.739 202.147,220.079 202.429,220.345 202.648 C 222.343 204.291,222.505 208.627,220.636 210.464 C 219.702 211.383,219.426 211.513,218.230 211.600 C 216.115 211.753,213.775 210.601,213.775 209.407 C 213.775 209.245,213.663 209.075,213.526 209.029 C 212.797 208.786,213.461 203.310,214.220 203.310 C 214.312 203.310,214.442 203.136,214.510 202.923 C 214.856 201.832,218.586 201.169,219.590 202.020 M102.723 202.025 C 102.723 202.140,102.963 202.295,103.257 202.368 C 104.407 202.657,103.609 205.232,102.369 205.232 C 102.211 205.232,102.082 205.328,102.082 205.446 C 102.082 205.563,101.554 205.659,100.908 205.659 L 99.733 205.659 99.733 203.737 L 99.733 201.815 101.228 201.815 C 102.063 201.815,102.723 201.908,102.723 202.025 M147.757 202.187 C 149.517 203.197,148.738 205.573,146.547 205.877 C 145.877 205.970,145.112 206.114,144.848 206.198 C 144.370 206.349,144.367 206.337,144.367 204.083 L 144.367 201.815 145.738 201.815 C 146.651 201.815,147.326 201.940,147.757 202.187 M253.070 202.029 C 253.070 202.146,253.212 202.242,253.385 202.242 C 254.463 202.242,254.571 204.154,253.576 205.628 C 253.548 205.669,252.966 205.783,252.283 205.881 C 251.600 205.979,250.777 206.125,250.454 206.205 L 249.867 206.350 249.867 204.083 L 249.867 201.815 251.468 201.815 C 252.394 201.815,253.070 201.905,253.070 202.029 M264.800 204.538 C 264.809 204.685,264.901 204.805,265.006 204.805 C 265.110 204.805,265.258 205.141,265.336 205.553 C 265.413 205.964,265.568 206.300,265.680 206.300 C 265.792 206.300,265.884 206.468,265.885 206.674 C 265.886 206.879,266.024 207.312,266.193 207.635 L 266.499 208.222 264.033 208.222 C 261.767 208.222,261.579 208.192,261.724 207.848 C 261.810 207.643,261.928 207.258,261.985 206.994 C 262.042 206.730,262.164 206.514,262.255 206.514 C 262.346 206.514,262.483 206.249,262.560 205.926 C 262.638 205.603,263.003 204.723,263.373 203.969 L 264.046 202.600 264.415 203.435 C 264.618 203.895,264.791 204.391,264.800 204.538 " stroke="none" fill="#5c5c5c" fill-rule="evenodd"></path><path id="path3" d="M229.365 23.825 C 229.365 24.103,231.883 26.597,232.023 26.457 C 232.081 26.399,231.507 25.734,230.747 24.981 C 229.987 24.227,229.365 23.707,229.365 23.825 M169.447 27.389 L 168.820 28.083 169.514 27.456 C 169.896 27.111,170.208 26.799,170.208 26.762 C 170.208 26.597,170.032 26.742,169.447 27.389 M227.706 28.050 C 228.442 28.795,229.087 29.369,229.139 29.326 C 229.262 29.223,226.762 26.695,226.538 26.695 C 226.444 26.695,226.970 27.305,227.706 28.050 M228.777 82.000 C 228.122 82.830,228.167 83.120,228.831 82.348 C 229.125 82.007,229.365 81.646,229.365 81.547 C 229.365 81.283,229.308 81.327,228.777 82.000 M227.470 83.410 C 227.196 83.696,227.062 83.930,227.174 83.930 C 227.420 83.930,228.188 83.109,228.061 82.982 C 228.011 82.932,227.745 83.125,227.470 83.410 M230.681 85.956 C 229.936 86.717,229.360 87.414,229.399 87.504 C 229.439 87.593,230.152 86.970,230.984 86.119 C 231.816 85.267,232.393 84.570,232.266 84.570 C 232.138 84.571,231.425 85.194,230.681 85.956 " stroke="none" fill="#ac8c6c" fill-rule="evenodd"></path><path id="path4" d="M193.385 139.812 C 192.801 139.866,192.224 139.988,192.104 140.083 C 191.983 140.178,191.430 140.322,190.875 140.402 C 190.320 140.482,189.810 140.638,189.741 140.749 C 189.673 140.860,189.382 140.950,189.096 140.950 C 188.809 140.950,188.574 141.036,188.574 141.140 C 188.574 141.245,188.238 141.393,187.827 141.470 C 187.416 141.547,187.080 141.691,187.080 141.791 C 187.080 141.890,186.743 142.034,186.332 142.111 C 185.921 142.188,185.585 142.343,185.585 142.455 C 185.585 142.567,185.440 142.659,185.264 142.659 C 185.088 142.659,184.944 142.753,184.944 142.868 C 184.944 142.984,184.711 143.136,184.425 143.208 C 184.140 143.280,183.855 143.474,183.792 143.639 C 183.728 143.805,183.572 143.940,183.446 143.940 C 183.320 143.940,182.976 144.180,182.682 144.474 C 182.388 144.768,182.059 145.008,181.951 145.008 C 181.694 145.008,179.605 147.151,179.605 147.415 C 179.605 147.525,179.365 147.805,179.071 148.036 C 178.777 148.267,178.537 148.558,178.537 148.683 C 178.537 148.808,178.295 149.134,177.999 149.408 C 177.703 149.683,177.403 150.198,177.332 150.554 C 177.261 150.910,177.118 151.201,177.015 151.201 C 176.913 151.201,176.829 151.345,176.829 151.522 C 176.829 151.698,176.740 151.842,176.632 151.842 C 176.524 151.842,176.372 152.130,176.295 152.483 C 176.217 152.835,176.078 153.123,175.985 153.123 C 175.892 153.123,175.754 153.508,175.679 153.978 C 175.604 154.447,175.447 154.832,175.331 154.832 C 175.215 154.832,175.120 155.101,175.120 155.430 C 175.120 155.759,175.022 156.126,174.903 156.245 C 174.783 156.364,174.625 157.249,174.551 158.210 C 174.477 159.171,174.334 159.957,174.234 159.957 C 173.997 159.957,173.996 164.809,174.234 164.956 C 174.333 165.018,174.475 165.816,174.548 166.731 C 174.669 168.252,175.035 169.729,175.356 169.995 C 175.427 170.053,175.552 170.462,175.633 170.902 C 175.714 171.343,175.860 171.703,175.957 171.703 C 176.054 171.703,176.191 172.065,176.262 172.506 C 176.332 172.948,176.581 173.447,176.815 173.615 C 177.049 173.784,177.299 174.191,177.372 174.521 C 177.444 174.850,177.568 175.123,177.646 175.126 C 177.725 175.129,178.025 175.513,178.313 175.980 C 178.601 176.447,178.913 176.829,179.007 176.829 C 179.101 176.829,179.178 176.935,179.178 177.064 C 179.178 177.321,182.027 180.246,182.278 180.246 C 182.362 180.246,182.781 180.537,183.207 180.894 C 184.379 181.873,184.405 181.890,184.960 182.064 C 185.245 182.152,185.526 182.289,185.585 182.368 C 185.733 182.566,187.200 183.235,187.486 183.235 C 187.615 183.235,187.720 183.326,187.720 183.436 C 187.720 183.546,188.153 183.701,188.681 183.781 C 189.210 183.860,189.642 184.010,189.642 184.114 C 189.642 184.218,189.863 184.303,190.133 184.303 C 190.404 184.303,190.719 184.397,190.833 184.512 C 190.948 184.627,191.880 184.785,192.905 184.864 C 193.929 184.943,194.768 185.089,194.768 185.189 C 194.768 185.289,195.825 185.371,197.117 185.371 C 198.409 185.371,199.466 185.289,199.466 185.189 C 199.466 185.089,200.304 184.943,201.329 184.864 C 202.354 184.785,203.286 184.627,203.401 184.512 C 203.515 184.397,203.830 184.303,204.100 184.303 C 204.371 184.303,204.592 184.218,204.592 184.114 C 204.592 184.010,205.024 183.860,205.553 183.781 C 206.081 183.701,206.514 183.557,206.514 183.460 C 206.514 183.363,206.850 183.220,207.261 183.143 C 207.672 183.066,208.009 182.911,208.009 182.799 C 208.009 182.687,208.153 182.595,208.329 182.595 C 208.505 182.595,208.649 182.506,208.649 182.398 C 208.649 182.290,208.938 182.138,209.290 182.061 C 209.642 181.983,209.931 181.854,209.931 181.772 C 209.931 181.691,210.261 181.446,210.666 181.228 C 211.070 181.011,211.451 180.700,211.513 180.539 C 211.575 180.378,211.749 180.244,211.899 180.242 C 212.183 180.238,215.056 177.414,215.056 177.140 C 215.056 177.054,215.285 176.772,215.565 176.513 C 215.845 176.253,216.140 175.834,216.220 175.581 C 216.300 175.327,216.456 175.120,216.565 175.120 C 216.675 175.120,216.765 174.976,216.765 174.800 C 216.765 174.624,216.859 174.479,216.974 174.479 C 217.089 174.479,217.244 174.239,217.318 173.946 C 217.391 173.652,217.530 173.412,217.625 173.412 C 217.720 173.412,217.862 173.123,217.939 172.771 C 218.017 172.419,218.156 172.130,218.249 172.130 C 218.342 172.130,218.480 171.746,218.555 171.276 C 218.630 170.806,218.787 170.422,218.903 170.422 C 219.019 170.422,219.114 170.190,219.114 169.906 C 219.114 169.622,219.209 169.358,219.326 169.318 C 219.442 169.279,219.600 168.502,219.677 167.592 C 219.754 166.682,219.899 165.937,219.999 165.937 C 220.100 165.937,220.182 164.303,220.182 162.306 C 220.182 160.310,220.097 158.676,219.993 158.676 C 219.889 158.676,219.737 157.955,219.654 157.074 C 219.572 156.193,219.416 155.473,219.309 155.473 C 219.202 155.473,219.114 155.232,219.114 154.939 C 219.114 154.645,219.028 154.405,218.924 154.405 C 218.820 154.405,218.671 154.068,218.594 153.657 C 218.517 153.246,218.362 152.910,218.250 152.910 C 218.138 152.910,218.046 152.676,218.046 152.391 C 218.046 152.106,217.907 151.733,217.736 151.563 C 217.566 151.392,217.363 151.001,217.286 150.693 C 217.209 150.385,217.060 150.133,216.955 150.133 C 216.850 150.133,216.765 150.024,216.765 149.891 C 216.765 149.758,216.524 149.426,216.231 149.154 C 215.937 148.882,215.697 148.553,215.697 148.423 C 215.697 148.077,211.540 144.005,211.017 143.839 C 210.772 143.762,210.571 143.608,210.571 143.499 C 210.571 143.389,210.424 143.300,210.244 143.300 C 210.064 143.300,209.862 143.155,209.794 142.979 C 209.727 142.803,209.489 142.659,209.267 142.659 C 209.045 142.659,208.863 142.570,208.863 142.462 C 208.863 142.354,208.574 142.202,208.222 142.125 C 207.870 142.048,207.581 141.897,207.581 141.790 C 207.581 141.683,207.197 141.535,206.727 141.459 C 206.257 141.384,205.873 141.239,205.873 141.137 C 205.873 141.034,205.641 140.950,205.357 140.950 C 205.073 140.950,204.809 140.856,204.770 140.740 C 204.730 140.624,204.218 140.465,203.631 140.387 C 203.043 140.308,202.505 140.156,202.435 140.049 C 202.297 139.839,195.135 139.652,193.385 139.812 M91.831 140.084 C 91.500 140.266,90.032 140.680,89.002 140.883 C 88.679 140.947,88.414 141.076,88.414 141.171 C 88.414 141.266,88.126 141.407,87.774 141.484 C 87.421 141.562,87.133 141.703,87.133 141.798 C 87.133 141.894,86.893 142.032,86.599 142.106 C 86.305 142.180,86.065 142.334,86.065 142.449 C 86.065 142.565,85.969 142.659,85.852 142.659 C 85.573 142.659,83.075 145.157,83.075 145.435 C 83.075 145.553,82.981 145.649,82.866 145.649 C 82.751 145.649,82.596 145.889,82.522 146.183 C 82.449 146.476,82.303 146.716,82.198 146.716 C 82.093 146.716,82.007 146.837,82.006 146.983 C 82.005 147.130,81.861 147.526,81.685 147.864 C 81.509 148.201,81.303 149.138,81.228 149.946 C 81.153 150.754,81.010 151.415,80.909 151.415 C 80.808 151.415,80.726 152.040,80.726 152.803 C 80.726 153.566,80.808 154.191,80.909 154.191 C 81.009 154.191,81.148 154.934,81.216 155.842 C 81.285 156.750,81.443 157.527,81.568 157.568 C 81.692 157.610,81.794 157.821,81.794 158.038 C 81.794 158.255,81.925 158.563,82.086 158.724 C 82.247 158.885,82.445 159.228,82.528 159.487 C 82.610 159.746,82.767 159.957,82.876 159.957 C 82.986 159.957,83.075 160.058,83.075 160.181 C 83.075 160.534,84.470 161.879,84.836 161.879 C 85.017 161.879,85.221 162.023,85.288 162.200 C 85.356 162.376,85.558 162.520,85.738 162.520 C 85.918 162.520,86.065 162.616,86.065 162.734 C 86.065 162.851,86.198 162.947,86.359 162.947 C 86.521 162.947,86.773 163.091,86.919 163.267 C 87.066 163.444,87.414 163.588,87.693 163.588 C 87.972 163.588,88.201 163.683,88.201 163.799 C 88.201 163.915,88.585 164.071,89.055 164.147 C 89.525 164.222,89.909 164.343,89.909 164.417 C 89.909 164.635,91.014 165.055,91.991 165.208 C 92.491 165.287,92.899 165.427,92.899 165.520 C 92.899 165.613,93.524 165.756,94.287 165.838 C 95.051 165.920,95.675 166.072,95.675 166.175 C 95.675 166.279,95.958 166.364,96.303 166.364 C 96.649 166.364,96.985 166.451,97.051 166.558 C 97.117 166.664,97.651 166.817,98.238 166.898 C 98.826 166.979,99.306 167.120,99.306 167.211 C 99.306 167.303,99.690 167.439,100.160 167.514 C 100.630 167.589,101.014 167.733,101.014 167.834 C 101.014 167.935,101.375 168.076,101.815 168.147 C 102.321 168.228,102.765 168.474,103.020 168.815 C 103.242 169.111,103.554 169.354,103.714 169.354 C 103.874 169.354,104.004 169.457,104.004 169.583 C 104.004 169.709,104.148 169.956,104.325 170.132 C 104.501 170.308,104.645 170.632,104.645 170.852 C 104.645 171.071,104.741 171.310,104.859 171.383 C 104.976 171.455,105.072 171.936,105.072 172.451 C 105.072 172.965,104.976 173.446,104.859 173.518 C 104.741 173.591,104.645 173.830,104.645 174.050 C 104.645 174.269,104.519 174.576,104.366 174.731 C 104.213 174.886,104.023 175.182,103.946 175.387 C 103.868 175.593,103.657 175.761,103.477 175.761 C 103.297 175.761,103.150 175.835,103.150 175.926 C 103.150 176.017,102.790 176.280,102.349 176.511 C 101.909 176.742,101.480 177.028,101.396 177.147 C 101.174 177.461,93.957 177.430,93.305 177.112 C 93.023 176.974,92.312 176.693,91.725 176.486 C 91.137 176.279,90.467 175.983,90.235 175.829 C 90.004 175.674,89.643 175.547,89.435 175.547 C 89.226 175.547,89.055 175.462,89.055 175.357 C 89.055 175.252,88.795 175.101,88.477 175.021 C 88.159 174.942,87.770 174.691,87.611 174.464 C 87.452 174.238,87.181 174.052,87.007 174.052 C 86.834 174.052,86.637 173.908,86.569 173.732 C 86.502 173.556,86.313 173.412,86.151 173.412 C 85.988 173.412,85.598 173.123,85.284 172.771 C 84.555 171.953,83.075 172.006,83.075 172.850 C 83.075 172.910,82.643 173.398,82.114 173.934 C 81.586 174.470,81.153 175.053,81.153 175.228 C 81.153 175.404,81.062 175.547,80.950 175.547 C 80.661 175.547,79.447 176.883,79.446 177.202 C 79.445 177.349,79.349 177.469,79.231 177.469 C 79.114 177.469,79.018 177.566,79.018 177.685 C 79.018 177.974,80.102 179.178,80.363 179.178 C 80.477 179.178,80.783 179.407,81.042 179.687 C 81.301 179.967,81.721 180.261,81.974 180.342 C 82.227 180.422,82.435 180.578,82.435 180.687 C 82.435 180.797,82.579 180.886,82.755 180.886 C 82.931 180.886,83.075 180.972,83.075 181.077 C 83.075 181.181,83.316 181.327,83.609 181.401 C 83.903 181.475,84.143 181.622,84.143 181.728 C 84.143 181.834,84.431 181.983,84.784 182.061 C 85.136 182.138,85.424 182.267,85.424 182.346 C 85.424 182.518,86.364 182.941,87.186 183.140 C 87.509 183.218,87.774 183.358,87.774 183.452 C 87.774 183.546,88.254 183.689,88.841 183.769 C 89.429 183.850,89.909 183.993,89.909 184.086 C 89.909 184.258,90.103 184.302,92.792 184.740 C 94.794 185.066,102.821 184.931,103.187 184.566 C 103.331 184.421,103.670 184.303,103.940 184.303 C 104.210 184.303,104.431 184.219,104.431 184.117 C 104.431 184.015,104.816 183.869,105.286 183.794 C 105.755 183.719,106.140 183.570,106.140 183.463 C 106.140 183.357,106.428 183.206,106.781 183.129 C 107.133 183.051,107.421 182.899,107.421 182.791 C 107.421 182.683,107.530 182.595,107.664 182.595 C 107.797 182.595,108.129 182.355,108.401 182.061 C 108.673 181.767,109.009 181.527,109.148 181.527 C 109.438 181.527,110.838 180.100,110.838 179.803 C 110.838 179.694,110.928 179.605,111.037 179.605 C 111.147 179.605,111.304 179.393,111.386 179.134 C 111.468 178.876,111.667 178.532,111.827 178.372 C 111.988 178.211,112.120 177.894,112.120 177.668 C 112.120 177.441,112.212 177.256,112.326 177.256 C 112.439 177.256,112.596 176.775,112.674 176.188 C 112.752 175.601,112.899 175.120,113.001 175.120 C 113.104 175.120,113.187 174.592,113.187 173.946 C 113.187 173.300,113.284 172.771,113.401 172.771 C 113.518 172.771,113.615 172.338,113.615 171.810 C 113.615 171.281,113.518 170.849,113.401 170.849 C 113.280 170.849,113.187 170.244,113.187 169.461 C 113.187 168.697,113.104 168.073,113.001 168.073 C 112.899 168.073,112.753 167.688,112.678 167.218 C 112.603 166.749,112.457 166.364,112.354 166.364 C 112.250 166.364,112.101 166.105,112.021 165.788 C 111.873 165.196,109.132 162.306,108.719 162.306 C 108.592 162.306,108.489 162.212,108.489 162.097 C 108.489 161.982,108.249 161.827,107.955 161.753 C 107.662 161.680,107.421 161.541,107.421 161.446 C 107.421 161.351,107.133 161.209,106.781 161.132 C 106.428 161.054,106.140 160.926,106.140 160.847 C 106.140 160.632,104.999 160.167,104.127 160.025 C 103.707 159.957,103.364 159.829,103.364 159.740 C 103.364 159.651,102.933 159.514,102.408 159.435 C 101.882 159.356,101.396 159.201,101.327 159.091 C 101.259 158.980,100.926 158.889,100.587 158.889 C 100.249 158.889,99.918 158.802,99.852 158.696 C 99.786 158.589,99.228 158.435,98.612 158.352 C 97.995 158.269,97.395 158.126,97.277 158.035 C 97.160 157.944,96.559 157.802,95.942 157.719 C 95.326 157.636,94.821 157.481,94.821 157.375 C 94.821 157.268,94.653 157.180,94.447 157.180 C 94.242 157.179,93.798 157.035,93.462 156.859 C 93.126 156.684,92.717 156.540,92.554 156.540 C 92.392 156.540,92.258 156.444,92.258 156.327 C 92.258 156.209,92.121 156.113,91.953 156.113 C 91.786 156.113,91.517 155.982,91.356 155.821 C 91.195 155.660,90.852 155.462,90.593 155.380 C 90.335 155.297,90.123 155.099,90.123 154.939 C 90.123 154.780,89.955 154.480,89.749 154.274 C 89.452 153.976,89.377 153.537,89.383 152.141 L 89.390 150.383 90.369 149.404 C 90.907 148.866,91.457 148.425,91.590 148.425 C 91.723 148.425,91.831 148.333,91.831 148.221 C 91.831 148.109,92.192 147.951,92.632 147.870 C 93.073 147.789,93.490 147.635,93.560 147.528 C 93.724 147.276,98.488 147.286,98.649 147.540 C 98.717 147.646,99.277 147.801,99.893 147.885 C 100.510 147.969,101.014 148.125,101.014 148.231 C 101.014 148.338,101.255 148.425,101.548 148.425 C 101.842 148.425,102.082 148.521,102.082 148.639 C 102.082 148.756,102.192 148.852,102.326 148.852 C 102.650 148.852,104.519 149.770,104.609 149.973 C 104.649 150.061,104.868 150.133,105.097 150.133 C 105.325 150.133,105.568 150.278,105.636 150.454 C 105.703 150.630,105.851 150.774,105.964 150.774 C 106.078 150.774,106.304 150.894,106.468 151.041 C 107.209 151.705,107.424 151.842,107.733 151.842 C 107.914 151.842,108.062 151.739,108.062 151.613 C 108.062 151.487,108.182 151.250,108.329 151.087 C 108.963 150.380,109.130 150.138,109.130 149.929 C 109.130 149.807,109.229 149.706,109.350 149.706 C 109.471 149.706,109.634 149.538,109.712 149.333 C 109.790 149.127,109.955 148.842,110.079 148.699 C 110.711 147.972,110.838 147.784,110.838 147.580 C 110.838 147.457,110.932 147.357,111.048 147.357 C 111.163 147.357,111.316 147.124,111.387 146.839 C 111.459 146.554,111.653 146.268,111.819 146.205 C 112.219 146.051,112.215 145.008,111.815 145.008 C 111.647 145.008,111.331 144.781,111.113 144.503 C 110.894 144.225,110.503 143.930,110.243 143.848 C 109.983 143.765,109.770 143.616,109.770 143.516 C 109.770 143.415,109.482 143.270,109.130 143.193 C 108.777 143.115,108.489 142.964,108.489 142.855 C 108.489 142.747,108.345 142.659,108.169 142.659 C 107.993 142.659,107.848 142.567,107.848 142.455 C 107.848 142.343,107.512 142.188,107.101 142.111 C 106.690 142.034,106.353 141.890,106.353 141.791 C 106.353 141.691,105.993 141.544,105.553 141.463 C 105.112 141.382,104.704 141.257,104.645 141.185 C 104.429 140.921,102.891 140.488,101.756 140.370 C 101.113 140.304,100.587 140.167,100.587 140.066 C 100.587 139.832,92.260 139.848,91.831 140.084 M0.000 162.520 L 0.000 184.730 16.444 184.730 L 32.888 184.730 32.888 180.779 L 32.888 176.829 20.609 176.829 L 8.329 176.829 8.329 171.383 L 8.329 165.937 19.114 165.937 L 29.899 165.937 29.899 162.200 L 29.899 158.462 19.114 158.462 L 8.329 158.462 8.329 153.123 L 8.329 147.784 20.502 147.784 L 32.675 147.784 32.675 144.047 L 32.675 140.310 16.337 140.310 L 0.000 140.310 0.000 162.520 M41.217 162.525 L 41.217 184.740 45.222 184.682 L 49.226 184.624 49.282 177.523 L 49.338 170.422 55.529 170.422 C 58.933 170.422,61.719 170.338,61.719 170.236 C 61.719 170.134,62.392 169.984,63.214 169.903 C 64.036 169.822,64.709 169.677,64.709 169.582 C 64.709 169.487,65.093 169.347,65.563 169.272 C 66.033 169.197,66.418 169.040,66.418 168.924 C 66.418 168.808,66.610 168.713,66.845 168.713 C 67.080 168.713,67.272 168.625,67.272 168.517 C 67.272 168.409,67.560 168.257,67.912 168.179 C 68.265 168.102,68.553 167.961,68.553 167.865 C 68.553 167.770,68.793 167.631,69.087 167.558 C 69.381 167.484,69.621 167.330,69.621 167.214 C 69.621 167.099,69.715 167.005,69.829 167.005 C 70.171 167.005,72.536 164.586,72.701 164.068 C 72.785 163.804,72.943 163.588,73.052 163.588 C 73.162 163.588,73.251 163.444,73.251 163.267 C 73.251 163.091,73.340 162.947,73.448 162.947 C 73.556 162.947,73.708 162.659,73.785 162.306 C 73.863 161.954,74.011 161.666,74.115 161.666 C 74.219 161.666,74.368 161.185,74.446 160.598 C 74.524 160.011,74.672 159.530,74.774 159.530 C 74.876 159.530,74.960 159.146,74.960 158.676 C 74.960 158.206,75.056 157.822,75.174 157.822 C 75.304 157.822,75.387 156.861,75.387 155.366 C 75.387 153.871,75.304 152.910,75.174 152.910 C 75.056 152.910,74.960 152.429,74.960 151.842 C 74.960 151.255,74.875 150.774,74.771 150.774 C 74.667 150.774,74.516 150.342,74.437 149.813 C 74.358 149.285,74.203 148.852,74.093 148.852 C 73.982 148.852,73.892 148.656,73.892 148.415 C 73.892 148.175,73.652 147.738,73.358 147.445 C 73.065 147.151,72.824 146.808,72.824 146.682 C 72.824 146.337,69.760 143.372,69.229 143.204 C 68.975 143.123,68.767 142.968,68.767 142.858 C 68.767 142.748,68.623 142.659,68.446 142.659 C 68.270 142.659,68.126 142.564,68.126 142.448 C 68.126 142.332,67.742 142.175,67.272 142.100 C 66.802 142.025,66.418 141.881,66.418 141.780 C 66.418 141.679,66.033 141.535,65.563 141.459 C 65.093 141.384,64.709 141.249,64.709 141.159 C 64.709 140.996,64.232 140.905,61.399 140.533 C 60.577 140.425,55.699 140.330,50.561 140.323 L 41.217 140.310 41.217 162.525 M121.782 162.467 L 121.837 184.624 125.948 184.682 L 130.059 184.740 130.059 162.525 L 130.059 140.310 125.893 140.310 L 121.728 140.310 121.782 162.467 M140.576 162.467 L 140.630 184.624 156.113 184.624 L 171.596 184.624 171.655 180.726 L 171.713 176.829 160.176 176.829 L 148.639 176.829 148.639 158.569 L 148.639 140.310 144.580 140.310 L 140.521 140.310 140.576 162.467 M228.349 162.467 L 228.404 184.624 232.461 184.624 L 236.519 184.624 236.574 169.728 C 236.604 161.535,236.683 154.832,236.749 154.832 C 236.960 154.832,237.480 155.433,237.480 155.678 C 237.480 155.807,237.620 155.967,237.792 156.033 C 237.964 156.099,238.168 156.354,238.246 156.600 C 238.324 156.846,238.712 157.353,239.109 157.727 C 239.505 158.100,239.829 158.494,239.829 158.602 C 239.829 158.805,240.586 159.768,241.573 160.822 C 241.886 161.157,242.204 161.623,242.278 161.858 C 242.353 162.092,242.601 162.344,242.830 162.417 C 243.059 162.489,243.246 162.715,243.246 162.918 C 243.246 163.121,243.530 163.523,243.878 163.811 C 244.225 164.100,244.513 164.490,244.518 164.679 C 244.523 164.868,244.768 165.203,245.061 165.424 C 245.355 165.644,245.595 165.931,245.595 166.061 C 245.595 166.191,245.788 166.472,246.022 166.684 C 246.257 166.897,246.450 167.159,246.450 167.266 C 246.450 167.373,246.786 167.778,247.197 168.166 C 247.608 168.553,247.944 168.959,247.944 169.066 C 247.944 169.271,248.705 170.237,249.706 171.305 C 250.029 171.650,250.294 172.020,250.294 172.128 C 250.294 172.236,250.534 172.565,250.828 172.858 C 251.121 173.152,251.364 173.469,251.367 173.562 C 251.371 173.656,251.659 174.012,252.008 174.355 C 252.357 174.697,252.643 175.062,252.643 175.166 C 252.643 175.269,252.883 175.577,253.177 175.849 C 253.470 176.121,253.711 176.445,253.711 176.570 C 253.711 176.694,253.999 177.084,254.351 177.436 C 254.704 177.789,254.992 178.146,254.992 178.229 C 254.992 178.313,255.221 178.594,255.501 178.853 C 255.781 179.112,256.074 179.527,256.153 179.774 C 256.231 180.021,256.482 180.283,256.711 180.356 C 256.940 180.428,257.128 180.654,257.128 180.857 C 257.128 181.060,257.412 181.462,257.759 181.751 C 258.107 182.039,258.395 182.390,258.400 182.532 C 258.405 182.673,258.625 183.015,258.889 183.292 C 259.154 183.568,259.476 183.981,259.607 184.209 C 259.823 184.588,260.136 184.629,263.290 184.682 L 266.738 184.741 266.738 162.525 L 266.738 140.310 262.680 140.310 L 258.623 140.310 258.623 154.825 C 258.623 167.640,258.585 169.326,258.302 169.218 C 258.126 169.150,257.982 168.950,257.982 168.774 C 257.982 168.598,257.796 168.247,257.568 167.996 C 256.348 166.646,256.060 166.283,256.060 166.091 C 256.060 165.975,255.736 165.575,255.339 165.201 C 254.943 164.828,254.555 164.320,254.477 164.075 C 254.399 163.829,254.195 163.573,254.023 163.507 C 253.851 163.442,253.711 163.281,253.711 163.150 C 253.711 163.019,253.374 162.585,252.963 162.186 C 252.552 161.786,252.216 161.382,252.216 161.286 C 252.216 161.062,251.673 160.344,250.667 159.238 C 250.227 158.754,249.867 158.251,249.867 158.120 C 249.867 157.989,249.626 157.701,249.333 157.481 C 249.039 157.260,248.799 156.966,248.799 156.826 C 248.799 156.687,248.510 156.285,248.158 155.932 C 247.806 155.580,247.517 155.195,247.517 155.077 C 247.517 154.959,247.290 154.684,247.012 154.465 C 246.734 154.247,246.442 153.864,246.363 153.615 C 246.284 153.366,246.079 153.109,245.908 153.043 C 245.736 152.977,245.595 152.794,245.595 152.635 C 245.595 152.477,245.259 152.050,244.848 151.686 C 244.437 151.322,244.100 150.935,244.100 150.825 C 244.100 150.716,243.932 150.426,243.727 150.182 C 243.521 149.938,243.113 149.433,242.819 149.060 C 242.525 148.686,242.165 148.253,242.018 148.098 C 241.871 147.942,241.751 147.725,241.751 147.616 C 241.751 147.507,241.511 147.237,241.217 147.016 C 240.924 146.796,240.683 146.501,240.683 146.362 C 240.683 146.223,240.395 145.820,240.043 145.468 C 239.690 145.116,239.402 144.731,239.402 144.613 C 239.402 144.495,239.162 144.209,238.868 143.978 C 238.574 143.747,238.334 143.472,238.334 143.366 C 238.334 143.127,237.839 142.466,236.746 141.247 L 235.904 140.310 232.100 140.310 L 228.295 140.310 228.349 162.467 M279.338 162.409 L 279.338 184.509 279.823 184.630 C 280.090 184.697,280.979 184.723,281.798 184.688 L 283.289 184.624 283.343 165.884 C 283.379 153.638,283.472 147.144,283.610 147.144 C 283.727 147.144,283.825 147.264,283.829 147.411 C 283.832 147.557,284.120 147.958,284.469 148.300 C 284.818 148.643,285.108 149.027,285.113 149.155 C 285.118 149.282,285.406 149.622,285.754 149.910 C 286.101 150.198,286.385 150.541,286.385 150.672 C 286.385 150.803,286.626 151.120,286.919 151.375 C 287.213 151.630,287.453 151.943,287.453 152.071 C 287.453 152.198,287.718 152.573,288.041 152.905 C 288.364 153.236,288.868 153.815,289.162 154.192 C 289.455 154.568,289.816 155.004,289.963 155.159 C 290.109 155.315,290.230 155.511,290.230 155.594 C 290.230 155.678,290.518 156.022,290.870 156.359 C 291.223 156.696,291.511 157.063,291.511 157.176 C 291.511 157.288,291.847 157.744,292.257 158.188 C 292.668 158.633,293.293 159.311,293.646 159.696 C 293.999 160.081,294.287 160.524,294.287 160.681 C 294.287 160.837,294.527 161.146,294.821 161.366 C 295.115 161.587,295.355 161.867,295.355 161.989 C 295.355 162.112,295.523 162.370,295.729 162.564 C 296.213 163.022,296.636 163.541,296.636 163.678 C 296.636 163.738,296.925 164.082,297.277 164.442 C 297.629 164.803,297.918 165.170,297.918 165.259 C 297.918 165.348,298.254 165.777,298.665 166.213 C 299.076 166.649,299.413 167.082,299.413 167.175 C 299.413 167.269,299.697 167.581,300.044 167.869 C 300.392 168.157,300.680 168.490,300.685 168.609 C 300.690 168.727,300.934 169.084,301.228 169.400 C 301.522 169.717,301.762 170.052,301.763 170.146 C 301.763 170.239,302.052 170.622,302.404 170.997 C 302.755 171.373,303.043 171.730,303.043 171.791 C 303.043 171.852,303.308 172.194,303.631 172.551 C 303.954 172.908,304.458 173.494,304.752 173.854 C 305.045 174.213,305.406 174.639,305.553 174.799 C 305.699 174.959,305.820 175.173,305.820 175.275 C 305.820 175.377,306.104 175.696,306.451 175.984 C 306.799 176.273,307.087 176.612,307.092 176.740 C 307.097 176.867,307.387 177.251,307.736 177.594 C 308.085 177.936,308.373 178.293,308.376 178.387 C 308.380 178.480,308.623 178.797,308.916 179.090 C 309.210 179.384,309.450 179.713,309.450 179.821 C 309.450 179.929,309.714 180.297,310.037 180.638 C 310.360 180.980,310.865 181.570,311.159 181.949 C 311.452 182.329,311.813 182.767,311.959 182.922 C 312.106 183.078,312.226 183.273,312.226 183.357 C 312.226 184.063,313.578 184.748,314.851 184.687 L 316.177 184.624 316.232 162.467 L 316.286 140.310 314.363 140.310 L 312.440 140.310 312.440 158.798 C 312.440 175.232,312.404 177.251,312.120 176.966 C 311.943 176.790,311.799 176.558,311.799 176.452 C 311.799 176.346,311.511 176.002,311.159 175.688 C 310.806 175.374,310.518 175.008,310.518 174.876 C 310.518 174.744,310.302 174.428,310.037 174.174 C 309.773 173.920,309.224 173.285,308.817 172.761 C 308.411 172.238,308.002 171.778,307.910 171.739 C 307.817 171.700,307.742 171.566,307.742 171.442 C 307.742 171.317,307.453 170.940,307.101 170.603 C 306.749 170.266,306.460 169.900,306.460 169.788 C 306.460 169.676,306.222 169.317,305.931 168.989 C 305.639 168.661,305.111 168.066,304.756 167.667 C 304.401 167.268,304.111 166.847,304.111 166.731 C 304.111 166.616,303.775 166.204,303.364 165.816 C 302.952 165.429,302.616 165.016,302.616 164.900 C 302.616 164.784,302.328 164.400,301.975 164.048 C 301.623 163.695,301.335 163.338,301.335 163.254 C 301.335 163.169,301.046 162.825,300.694 162.488 C 300.342 162.151,300.053 161.779,300.053 161.660 C 300.053 161.542,299.717 161.118,299.306 160.719 C 298.895 160.320,298.556 159.913,298.553 159.815 C 298.549 159.717,298.261 159.357,297.912 159.014 C 297.563 158.671,297.277 158.306,297.277 158.203 C 297.277 158.100,297.037 157.792,296.743 157.520 C 296.450 157.248,296.209 156.940,296.208 156.836 C 296.208 156.732,295.919 156.340,295.568 155.965 C 295.216 155.589,294.928 155.221,294.928 155.147 C 294.928 155.073,294.664 154.729,294.341 154.382 C 294.018 154.036,293.513 153.460,293.219 153.103 C 292.926 152.746,292.565 152.324,292.419 152.163 C 292.272 152.003,292.149 151.794,292.146 151.697 C 292.142 151.601,291.854 151.241,291.505 150.899 C 291.156 150.556,290.866 150.172,290.861 150.044 C 290.856 149.917,290.568 149.577,290.221 149.289 C 289.873 149.001,289.589 148.658,289.589 148.527 C 289.589 148.396,289.349 148.080,289.055 147.824 C 288.761 147.569,288.521 147.256,288.521 147.129 C 288.521 147.001,288.257 146.626,287.934 146.295 C 287.611 145.963,287.106 145.384,286.813 145.007 C 286.519 144.631,286.159 144.195,286.012 144.040 C 285.865 143.884,285.745 143.689,285.745 143.605 C 285.745 143.521,285.456 143.177,285.104 142.840 C 284.752 142.504,284.463 142.140,284.463 142.032 C 284.463 141.072,283.010 140.310,281.181 140.310 L 279.338 140.310 279.338 162.409 M328.082 162.467 L 328.137 184.624 343.994 184.678 L 359.851 184.733 359.851 182.810 L 359.851 180.886 345.862 180.886 L 331.874 180.886 331.874 172.451 L 331.874 164.015 344.367 164.015 L 356.861 164.015 356.861 162.093 L 356.861 160.171 344.367 160.171 L 331.874 160.171 331.874 152.056 L 331.874 143.940 345.755 143.940 L 359.637 143.940 359.637 142.125 L 359.637 140.310 343.832 140.310 L 328.028 140.310 328.082 162.467 M366.044 142.125 L 366.044 143.940 373.624 143.940 L 381.204 143.940 381.259 164.282 L 381.313 184.624 383.235 184.624 L 385.158 184.624 385.212 164.282 L 385.266 143.940 392.633 143.940 L 400.000 143.940 400.000 142.125 L 400.000 140.310 383.022 140.310 L 366.044 140.310 366.044 142.125 M199.466 147.541 C 199.466 147.642,199.970 147.784,200.586 147.857 C 201.202 147.930,201.739 148.088,201.778 148.208 C 201.818 148.327,202.083 148.425,202.367 148.425 C 202.651 148.425,202.883 148.513,202.883 148.622 C 202.883 148.730,203.171 148.881,203.524 148.959 C 203.876 149.036,204.164 149.182,204.164 149.282 C 204.164 149.382,204.381 149.532,204.645 149.615 C 204.909 149.698,205.337 149.993,205.596 150.270 C 205.854 150.547,206.167 150.774,206.290 150.774 C 206.413 150.774,206.514 150.864,206.514 150.973 C 206.514 151.083,206.701 151.232,206.930 151.305 C 207.159 151.377,207.405 151.624,207.478 151.853 C 207.551 152.082,207.942 152.621,208.348 153.051 C 208.754 153.482,209.142 154.058,209.211 154.333 C 209.280 154.607,209.414 154.832,209.510 154.832 C 209.605 154.832,209.746 155.120,209.824 155.473 C 209.901 155.825,210.045 156.113,210.142 156.113 C 210.240 156.113,210.385 156.498,210.464 156.967 C 210.544 157.437,210.696 157.822,210.804 157.822 C 210.911 157.822,210.998 158.150,210.998 158.551 C 210.998 158.953,211.108 159.318,211.243 159.363 C 211.412 159.419,211.488 160.399,211.488 162.520 C 211.488 164.641,211.412 165.621,211.243 165.678 C 211.108 165.722,210.998 166.034,210.998 166.369 C 210.998 166.705,210.908 167.036,210.797 167.104 C 210.687 167.172,210.531 167.659,210.453 168.184 C 210.374 168.710,210.234 169.140,210.143 169.140 C 210.052 169.140,209.915 169.389,209.838 169.693 C 209.694 170.267,209.573 170.447,208.596 171.538 C 208.273 171.899,208.007 172.299,208.004 172.429 C 208.002 172.558,207.659 172.952,207.242 173.305 C 206.826 173.657,206.189 174.210,205.827 174.533 C 205.465 174.856,205.039 175.120,204.880 175.120 C 204.721 175.120,204.592 175.214,204.592 175.330 C 204.592 175.445,204.351 175.599,204.058 175.673 C 203.764 175.747,203.524 175.893,203.524 175.998 C 203.524 176.102,203.356 176.189,203.150 176.189 C 202.944 176.190,202.501 176.334,202.165 176.510 C 201.828 176.685,201.332 176.829,201.061 176.829 C 200.791 176.829,200.529 176.949,200.480 177.096 C 200.357 177.466,193.872 177.453,193.749 177.082 C 193.702 176.942,193.432 176.829,193.148 176.829 C 192.864 176.829,192.632 176.733,192.632 176.615 C 192.632 176.498,192.483 176.401,192.300 176.401 C 191.829 176.401,190.069 175.573,190.069 175.352 C 190.069 175.250,189.829 175.106,189.536 175.032 C 189.242 174.959,189.002 174.804,189.002 174.689 C 189.002 174.574,188.898 174.479,188.772 174.479 C 188.645 174.479,188.264 174.215,187.924 173.892 C 187.585 173.569,187.184 173.189,187.033 173.048 C 186.592 172.634,186.320 172.263,186.168 171.863 C 186.089 171.658,185.941 171.490,185.839 171.490 C 185.737 171.490,185.470 171.106,185.245 170.638 C 185.021 170.169,184.765 169.785,184.677 169.784 C 184.589 169.782,184.514 169.661,184.510 169.514 C 184.506 169.367,184.317 168.863,184.090 168.393 C 183.863 167.923,183.674 167.274,183.670 166.951 C 183.666 166.628,183.566 166.364,183.449 166.364 C 183.332 166.364,183.235 166.076,183.235 165.723 C 183.235 165.371,183.139 165.083,183.022 165.083 C 182.891 165.083,182.808 164.086,182.808 162.520 C 182.808 160.954,182.891 159.957,183.022 159.957 C 183.139 159.957,183.235 159.573,183.235 159.103 C 183.235 158.633,183.323 158.249,183.429 158.249 C 183.535 158.249,183.689 157.768,183.769 157.181 C 183.850 156.594,183.996 156.113,184.093 156.113 C 184.190 156.113,184.333 155.825,184.410 155.473 C 184.487 155.120,184.639 154.832,184.747 154.832 C 184.855 154.832,184.944 154.688,184.944 154.511 C 184.944 154.335,185.034 154.191,185.143 154.191 C 185.253 154.191,185.405 153.994,185.481 153.753 C 185.558 153.512,185.901 153.028,186.243 152.678 C 186.586 152.328,186.866 151.906,186.866 151.742 C 186.866 151.578,187.076 151.377,187.333 151.295 C 187.590 151.214,188.094 150.836,188.454 150.457 C 188.814 150.077,189.325 149.698,189.589 149.615 C 189.853 149.532,190.069 149.382,190.069 149.282 C 190.069 149.182,190.358 149.036,190.710 148.959 C 191.062 148.881,191.351 148.730,191.351 148.622 C 191.351 148.513,191.591 148.425,191.885 148.425 C 192.178 148.425,192.419 148.336,192.419 148.227 C 192.419 148.118,192.947 147.963,193.593 147.882 C 194.239 147.801,194.768 147.650,194.768 147.546 C 194.768 147.442,195.825 147.357,197.117 147.357 C 198.409 147.357,199.466 147.440,199.466 147.541 M60.011 148.211 C 60.011 148.329,60.288 148.425,60.627 148.425 C 60.966 148.425,61.518 148.569,61.855 148.744 C 62.191 148.919,62.635 149.064,62.840 149.064 C 63.046 149.065,63.214 149.162,63.214 149.279 C 63.214 149.397,63.304 149.493,63.413 149.493 C 64.085 149.493,65.302 150.664,65.686 151.682 C 65.763 151.887,65.910 152.056,66.013 152.056 C 66.115 152.056,66.260 152.440,66.336 152.910 C 66.411 153.380,66.556 153.764,66.658 153.764 C 66.761 153.764,66.845 154.485,66.845 155.366 C 66.845 156.247,66.754 156.967,66.644 156.967 C 66.534 156.967,66.379 157.400,66.300 157.928 C 66.220 158.457,66.077 158.889,65.981 158.889 C 65.884 158.889,65.745 159.080,65.671 159.314 C 65.497 159.861,64.399 160.959,63.852 161.133 C 63.619 161.207,63.428 161.349,63.428 161.450 C 63.428 161.550,63.139 161.695,62.787 161.773 C 62.435 161.850,62.146 161.983,62.146 162.068 C 62.146 162.531,59.593 162.807,54.618 162.882 L 49.333 162.961 49.333 155.480 L 49.333 147.998 54.672 147.998 C 58.089 147.998,60.011 148.075,60.011 148.211 M291.178 206.620 C 291.178 210.027,291.208 211.390,291.244 209.651 C 291.280 207.911,291.279 205.124,291.243 203.457 C 291.207 201.791,291.178 203.214,291.178 206.620 M160.878 206.620 C 160.879 207.325,160.919 207.588,160.966 207.204 C 161.014 206.820,161.013 206.243,160.964 205.922 C 160.915 205.602,160.877 205.916,160.878 206.620 M120.865 206.668 C 120.807 207.164,120.840 207.489,120.939 207.389 C 121.039 207.290,121.087 206.884,121.046 206.487 C 120.974 205.784,120.969 205.788,120.865 206.668 " stroke="none" fill="#040404" fill-rule="evenodd"></path></g></svg>